CrickxSharkCut.ufo
<glyph name="exclam" format="1">
  <advance width="341"/>
  <unicode hex="0021"/>
  <outline>
    <contour>
      <point x="295" y="666" type="line" smooth="no"/>
      <point x="219" y="185" type="line" smooth="no"/>
      <point x="76" y="185" type="line" smooth="no"/>
      <point x="154" y="666" type="line" smooth="no"/>
    </contour>
    <contour>
      <point x="208" y="134" type="line" smooth="no"/>
      <point x="187" y="0" type="line" smooth="no"/>
      <point x="47" y="0" type="line" smooth="no"/>
      <point x="71" y="134" type="line" smooth="no"/>
    </contour>
  </outline>
</glyph>
<glyph name="numbersign" format="1">
  <advance width="640"/>
  <unicode hex="0023"/>
  <outline>
    <contour>
      <point x="568" y="387" type="line" smooth="no"/>
      <point x="549" y="273" type="line" smooth="no"/>
      <point x="285" y="273" type="line" smooth="no"/>
      <point x="274" y="203" type="line" smooth="no"/>
      <point x="345" y="203" type="line" smooth="no"/>
      <point x="354" y="267" type="line" smooth="no"/>
      <point x="478" y="266" type="line" smooth="no"/>
      <point x="467" y="203" type="line" smooth="no"/>
      <point x="538" y="203" type="line" smooth="no"/>
      <point x="519" y="86" type="line" smooth="no"/>
      <point x="448" y="86" type="line" smooth="no"/>
      <point x="434" y="1" type="line" smooth="no"/>
      <point x="310" y="1" type="line" smooth="no"/>
      <point x="325" y="86" type="line" smooth="no"/>
      <point x="253" y="86" type="line" smooth="no"/>
      <point x="240" y="1" type="line" smooth="no"/>
      <point x="116" y="1" type="line" smooth="no"/>
      <point x="131" y="86" type="line" smooth="no"/>
      <point x="56" y="86" type="line" smooth="no"/>
      <point x="76" y="203" type="line" smooth="no"/>
      <point x="152" y="203" type="line" smooth="no"/>
      <point x="162" y="273" type="line" smooth="no"/>
      <point x="85" y="273" type="line" smooth="no"/>
      <point x="104" y="387" type="line" smooth="no"/>
      <point x="180" y="387" type="line" smooth="no"/>
      <point x="193" y="470" type="line" smooth="no"/>
      <point x="316" y="470" type="line" smooth="no"/>
      <point x="303" y="387" type="line" smooth="no"/>
      <point x="376" y="387" type="line" smooth="no"/>
      <point x="387" y="470" type="line" smooth="no"/>
      <point x="511" y="470" type="line" smooth="no"/>
      <point x="498" y="387" type="line" smooth="no"/>
    </contour>
  </outline>
</glyph>
<glyph name="dollar" format="1">
  <advance width="495"/>
  <unicode hex="0024"/>
  <outline>
    <contour>
      <point x="129" y="8" type="line" smooth="no"/>
      <point x="82" y="21"/>
      <point x="34" y="66"/>
      <point x="36" y="80" type="qcurve" smooth="yes"/>
      <point x="37" y="89"/>
      <point x="40" y="107" type="qcurve" smooth="yes"/>
      <point x="42" y="122"/>
      <point x="50" y="175"/>
      <point x="58" y="217" type="qcurve" smooth="no"/>
      <point x="184" y="218" type="line" smooth="no"/>
      <point x="181" y="208"/>
      <point x="179" y="195"/>
      <point x="178" y="190" type="qcurve" smooth="yes"/>
      <point x="177" y="185"/>
      <point x="177" y="181" type="qcurve" smooth="yes"/>
      <point x="177" y="169"/>
      <point x="191" y="142"/>
      <point x="215" y="142" type="qcurve" smooth="yes"/>
      <point x="234" y="142"/>
      <point x="256" y="162"/>
      <point x="267" y="190"/>
      <point x="270" y="221"/>
      <point x="272" y="232" type="qcurve" smooth="no"/>
      <point x="273" y="244"/>
      <point x="247" y="271"/>
      <point x="206" y="300"/>
      <point x="157" y="331"/>
      <point x="117" y="361"/>
      <point x="91" y="391"/>
      <point x="94" y="405" type="qcurve" smooth="no"/>
      <point x="105" y="491"/>
      <point x="115" y="524" type="qcurve" smooth="yes"/>
      <point x="121" y="543"/>
      <point x="144" y="576"/>
      <point x="176" y="602"/>
      <point x="212" y="621"/>
      <point x="230" y="628" type="qcurve" smooth="no"/>
      <point x="242" y="716" type="line" smooth="no"/>
      <point x="384" y="716" type="line" smooth="no"/>
      <point x="370" y="633" type="line" smooth="no"/>
      <point x="401" y="622"/>
      <point x="450" y="579"/>
      <point x="458" y="547" type="qcurve" smooth="no"/>
      <point x="459" y="537"/>
      <point x="460" y="522" type="qcurve" smooth="yes"/>
      <point x="461" y="509"/>
      <point x="460" y="470"/>
      <point x="457" y="444" type="qcurve" smooth="no"/>
      <point x="335" y="445" type="line" smooth="no"/>
      <point x="338" y="479"/>
      <point x="312" y="502"/>
      <point x="289" y="502" type="qcurve" smooth="yes"/>
      <point x="271" y="502"/>
      <point x="248" y="490"/>
      <point x="236" y="472"/>
      <point x="232" y="453"/>
      <point x="231" y="447" type="qcurve" smooth="yes"/>
      <point x="228" y="427"/>
      <point x="255" y="397"/>
      <point x="298" y="370"/>
      <point x="351" y="341"/>
      <point x="396" y="306"/>
      <point x="426" y="258"/>
      <point x="425" y="226" type="qcurve" smooth="no"/>
      <point x="420" y="194"/>
      <point x="407" y="131"/>
      <point x="397" y="97" type="qcurve" smooth="yes"/>
      <point x="390" y="74"/>
      <point x="321" y="22"/>
      <point x="269" y="8" type="qcurve" smooth="no"/>
      <point x="257" y="-69" type="line" smooth="no"/>
      <point x="117" y="-69" type="line" smooth="no"/>
      <point x="129" y="8" type="line" smooth="no"/>
    </contour>
  </outline>
</glyph>
<glyph name="parenright" format="1">
  <advance width="372"/>
  <unicode hex="0029"/>
  <outline>
    <contour>
      <point x="48" y="91" type="line" smooth="no"/>
      <point x="87" y="100"/>
      <point x="148" y="172"/>
      <point x="190" y="265"/>
      <point x="213" y="361"/>
      <point x="213" y="394" type="qcurve" smooth="yes"/>
      <point x="213" y="421"/>
      <point x="206" y="481"/>
      <point x="189" y="538"/>
      <point x="160" y="588"/>
      <point x="138" y="605" type="qcurve" smooth="no"/>
      <point x="160" y="746" type="line" smooth="no"/>
      <point x="212" y="724"/>
      <point x="285" y="648"/>
      <point x="332" y="553"/>
      <point x="352" y="446"/>
      <point x="352" y="394" type="qcurve" smooth="yes"/>
      <point x="352" y="348"/>
      <point x="332" y="249"/>
      <point x="293" y="152"/>
      <point x="237" y="64"/>
      <point x="164" y="-6"/>
      <point x="76" y="-53"/>
      <point x="24" y="-60" type="qcurve" smooth="no"/>
    </contour>
  </outline>
</glyph>
<glyph name="plus" format="1">
  <advance width="466"/>
  <unicode hex="002b"/>
  <outline>
    <contour>
      <point x="331" y="356" type="line" smooth="no"/>
      <point x="312" y="242" type="line" smooth="no"/>
      <point x="435" y="242" type="line" smooth="no"/>
      <point x="415" y="122" type="line" smooth="no"/>
      <point x="291" y="122" type="line" smooth="no"/>
      <point x="269" y="-1" type="line" smooth="no"/>
      <point x="142" y="0" type="line" smooth="no"/>
      <point x="163" y="120" type="line" smooth="no"/>
      <point x="32" y="120" type="line" smooth="no"/>
      <point x="51" y="239" type="line" smooth="no"/>
      <point x="184" y="239" type="line" smooth="no"/>
      <point x="204" y="356" type="line" smooth="no"/>
    </contour>
  </outline>
</glyph>
<glyph name="three" format="1">
  <advance width="514"/>
  <unicode hex="0033"/>
  <outline>
    <contour>
      <point x="374" y="444" type="line" smooth="no"/>
      <point x="397" y="432"/>
      <point x="423" y="408"/>
      <point x="428" y="397" type="qcurve" smooth="yes"/>
      <point x="434" y="385"/>
      <point x="434" y="373" type="qcurve" smooth="no"/>
      <point x="430" y="338"/>
      <point x="413" y="212"/>
      <point x="398" y="137" type="qcurve" smooth="yes"/>
      <point x="384" y="65"/>
      <point x="277" y="0"/>
      <point x="173" y="0" type="qcurve" smooth="yes"/>
      <point x="123" y="0"/>
      <point x="67" y="31"/>
      <point x="41" y="72"/>
      <point x="36" y="110"/>
      <point x="36" y="117" type="qcurve" smooth="yes"/>
      <point x="36" y="123"/>
      <point x="38" y="136" type="qcurve" smooth="yes"/>
      <point x="40" y="147"/>
      <point x="45" y="185"/>
      <point x="50" y="215" type="qcurve" smooth="no"/>
      <point x="175" y="220" type="line" smooth="no"/>
      <point x="170" y="193"/>
      <point x="177" y="167"/>
      <point x="185" y="162" type="qcurve" smooth="yes"/>
      <point x="192" y="157"/>
      <point x="216" y="157" type="line" smooth="yes"/>
      <point x="220" y="157"/>
      <point x="233" y="160"/>
      <point x="247" y="169"/>
      <point x="258" y="183"/>
      <point x="260" y="195" type="qcurve" smooth="yes"/>
      <point x="262" y="209"/>
      <point x="272" y="254" type="line" smooth="yes"/>
      <point x="276" y="270"/>
      <point x="278" y="286" type="qcurve" smooth="yes"/>
      <point x="278" y="292"/>
      <point x="275" y="308"/>
      <point x="264" y="323"/>
      <point x="246" y="333"/>
      <point x="232" y="333" type="qcurve" smooth="yes"/>
      <point x="223" y="333"/>
      <point x="214" y="331" type="qcurve" smooth="yes"/>
      <point x="196" y="328"/>
      <point x="177" y="316" type="qcurve" smooth="no"/>
      <point x="88" y="396" type="line" smooth="no"/>
      <point x="244" y="521" type="line" smooth="no"/>
      <point x="97" y="520" type="line" smooth="no"/>
      <point x="116" y="666" type="line" smooth="no"/>
      <point x="473" y="666" type="line" smooth="no"/>
      <point x="452" y="520" type="line" smooth="no"/>
    </contour>
  </outline>
</glyph>
<glyph name="six" format="1">
  <advance width="494"/>
  <unicode hex="0036"/>
  <outline>
    <contour>
      <point x="325" y="447" type="line" smooth="no"/>
      <point x="326" y="454"/>
      <point x="328" y="464"/>
      <point x="328" y="467" type="qcurve" smooth="yes"/>
      <point x="328" y="473" type="line" smooth="yes"/>
      <point x="328" y="477"/>
      <point x="325" y="492"/>
      <point x="318" y="507"/>
      <point x="304" y="517"/>
      <point x="293" y="517" type="qcurve" smooth="yes"/>
      <point x="264" y="517"/>
      <point x="243" y="486"/>
      <point x="241" y="473" type="qcurve" smooth="yes"/>
      <point x="225" y="385" type="line" smooth="yes"/>
      <point x="218" y="346"/>
      <point x="202" y="247"/>
      <point x="195" y="198" type="qcurve" smooth="yes"/>
      <point x="193" y="183"/>
      <point x="201" y="164"/>
      <point x="216" y="152"/>
      <point x="234" y="147"/>
      <point x="240" y="147" type="qcurve" smooth="yes"/>
      <point x="246" y="147"/>
      <point x="263" y="150"/>
      <point x="279" y="163"/>
      <point x="293" y="189"/>
      <point x="296" y="212" type="qcurve" smooth="yes"/>
      <point x="297" y="222"/>
      <point x="295" y="245"/>
      <point x="278" y="263"/>
      <point x="243" y="271"/>
      <point x="213" y="267" type="qcurve" smooth="no"/>
      <point x="226" y="343" type="line" smooth="no"/>
      <point x="249" y="352"/>
      <point x="297" y="356"/>
      <point x="320" y="356" type="qcurve" smooth="yes"/>
      <point x="329" y="356"/>
      <point x="366" y="345"/>
      <point x="403" y="322"/>
      <point x="428" y="285"/>
      <point x="425" y="260" type="qcurve" smooth="yes"/>
      <point x="410" y="146" type="line" smooth="yes"/>
      <point x="407" y="121"/>
      <point x="371" y="69"/>
      <point x="312" y="27"/>
      <point x="234" y="0"/>
      <point x="189" y="0" type="qcurve" smooth="yes"/>
      <point x="161" y="0"/>
      <point x="103" y="13"/>
      <point x="56" y="42"/>
      <point x="27" y="88"/>
      <point x="28" y="122" type="qcurve" smooth="no"/>
      <point x="65" y="367"/>
      <point x="74" y="416" type="qcurve" smooth="yes"/>
      <point x="93" y="514" type="line" smooth="no"/>
      <point x="101" y="561"/>
      <point x="150" y="620"/>
      <point x="213" y="654"/>
      <point x="282" y="666"/>
      <point x="310" y="666" type="qcurve" smooth="yes"/>
      <point x="359" y="666"/>
      <point x="419" y="642"/>
      <point x="451" y="610"/>
      <point x="461" y="577"/>
      <point x="461" y="568" type="qcurve" smooth="yes"/>
      <point x="462" y="555"/>
      <point x="460" y="537" type="qcurve" smooth="yes"/>
      <point x="452" y="477"/>
      <point x="447" y="447" type="qcurve" smooth="no"/>
    </contour>
  </outline>
</glyph>
<glyph name="nine" format="1">
  <advance width="497"/>
  <unicode hex="0039"/>
  <outline>
    <contour>
      <point x="401" y="146" type="qcurve" smooth="yes"/>
      <point x="399" y="135"/>
      <point x="375" y="87"/>
      <point x="325" y="38"/>
      <point x="245" y="1"/>
      <point x="187" y="1" type="qcurve" smooth="yes"/>
      <point x="129" y="1"/>
      <point x="62" y="32"/>
      <point x="28" y="74"/>
      <point x="19" y="114"/>
      <point x="19" y="123" type="qcurve" smooth="yes"/>
      <point x="19" y="133"/>
      <point x="20" y="146" type="qcurve" smooth="yes"/>
      <point x="24" y="188"/>
      <point x="27" y="208" type="qcurve" smooth="no"/>
      <point x="155" y="209" type="line" smooth="no"/>
      <point x="154" y="202"/>
      <point x="153" y="194"/>
      <point x="153" y="191" type="qcurve" smooth="yes"/>
      <point x="153" y="185" type="line" smooth="yes"/>
      <point x="153" y="174"/>
      <point x="173" y="146"/>
      <point x="193" y="146" type="qcurve" smooth="yes"/>
      <point x="209" y="146"/>
      <point x="231" y="157"/>
      <point x="244" y="173"/>
      <point x="249" y="190"/>
      <point x="250" y="196" type="qcurve" smooth="yes"/>
      <point x="250" y="200"/>
      <point x="291" y="449"/>
      <point x="292" y="456" type="qcurve" smooth="yes"/>
      <point x="296" y="482"/>
      <point x="269" y="511"/>
      <point x="246" y="511" type="qcurve" smooth="yes"/>
      <point x="222" y="511"/>
      <point x="189" y="481"/>
      <point x="184" y="449" type="qcurve" smooth="yes"/>
      <point x="181" y="431"/>
      <point x="192" y="406"/>
      <point x="210" y="391"/>
      <point x="231" y="384"/>
      <point x="238" y="384" type="qcurve" smooth="yes"/>
      <point x="245" y="384"/>
      <point x="251" y="385" type="qcurve" smooth="yes"/>
      <point x="260" y="386"/>
      <point x="273" y="390" type="qcurve" smooth="no"/>
      <point x="261" y="313" type="line" smooth="no"/>
      <point x="249" y="308"/>
      <point x="225" y="305"/>
      <point x="215" y="303" type="qcurve" smooth="yes"/>
      <point x="204" y="301"/>
      <point x="192" y="301" type="qcurve" smooth="yes"/>
      <point x="144" y="301"/>
      <point x="88" y="326"/>
      <point x="61" y="358"/>
      <point x="53" y="388"/>
      <point x="53" y="394" type="qcurve" smooth="yes"/>
      <point x="53" y="401"/>
      <point x="55" y="428"/>
      <point x="60" y="460"/>
      <point x="66" y="492"/>
      <point x="69" y="504" type="qcurve" smooth="yes"/>
      <point x="78" y="545"/>
      <point x="123" y="606"/>
      <point x="185" y="646"/>
      <point x="259" y="666"/>
      <point x="296" y="666" type="qcurve" smooth="yes"/>
      <point x="354" y="666"/>
      <point x="419" y="630"/>
      <point x="450" y="584"/>
      <point x="456" y="537"/>
      <point x="455" y="527" type="qcurve" smooth="yes"/>
      <point x="447" y="462"/>
      <point x="403" y="154"/>
    </contour>
  </outline>
</glyph>
<glyph name="colon" format="1">
  <advance width="292"/>
  <unicode hex="003a"/>
  <outline>
    <contour>
      <point x="221" y="148" type="line" smooth="no"/>
      <point x="196" y="0" type="line" smooth="no"/>
      <point x="41" y="0" type="line" smooth="no"/>
      <point x="66" y="148" type="line" smooth="no"/>
    </contour>
    <contour>
      <point x="264" y="398" type="line" smooth="no"/>
      <point x="239" y="250" type="line" smooth="no"/>
      <point x="84" y="250" type="line" smooth="no"/>
      <point x="109" y="398" type="line" smooth="no"/>
    </contour>
  </outline>
</glyph>
<glyph name="semicolon" format="1">
  <advance width="292"/>
  <unicode hex="003b"/>
  <unicode hex="037e"/>
  <outline>
    <contour>
      <point x="251" y="398" type="line" smooth="no"/>
      <point x="226" y="250" type="line" smooth="no"/>
      <point x="71" y="250" type="line" smooth="no"/>
      <point x="96" y="398" type="line" smooth="no"/>
    </contour>
    <contour>
      <point x="159" y="-117" type="line" smooth="no"/>
      <point x="166" y="-98"/>
      <point x="178" y="-72"/>
      <point x="187" y="-49"/>
      <point x="195" y="-25"/>
      <point x="198" y="-8" type="qcurve" smooth="yes"/>
      <point x="202" y="12"/>
      <point x="206" y="69"/>
      <point x="207" y="95" type="qcurve" smooth="yes"/>
      <point x="208" y="126"/>
      <point x="207" y="158" type="qcurve" smooth="no"/>
      <point x="58" y="158" type="line" smooth="no"/>
      <point x="30" y="0" type="line" smooth="no"/>
      <point x="118" y="0" type="line" smooth="no"/>
      <point x="94" y="-118" type="line" smooth="no"/>
    </contour>
  </outline>
</glyph>
<glyph name="less" format="1">
  <advance width="435"/>
  <unicode hex="003c"/>
  <outline>
    <contour>
      <point x="321" y="316" type="line" smooth="no"/>
      <point x="222" y="252" type="line" smooth="no"/>
      <point x="303" y="158" type="line" smooth="no"/>
      <point x="277" y="0" type="line" smooth="no"/>
      <point x="18" y="271" type="line" smooth="no"/>
      <point x="350" y="483" type="line" smooth="no"/>
    </contour>
  </outline>
</glyph>
<glyph name="equal" format="1">
  <advance width="388"/>
  <unicode hex="003d"/>
  <outline>
    <contour>
      <point x="81" y="188" type="line" smooth="no"/>
      <point x="326" y="188" type="line" smooth="no"/>
      <point x="305" y="58" type="line" smooth="no"/>
      <point x="60" y="58" type="line" smooth="no"/>
    </contour>
    <contour>
      <point x="109" y="358" type="line" smooth="no"/>
      <point x="354" y="358" type="line" smooth="no"/>
      <point x="333" y="228" type="line" smooth="no"/>
      <point x="88" y="228" type="line" smooth="no"/>
    </contour>
  </outline>
</glyph>
<glyph name="greater" format="1">
  <advance width="414"/>
  <unicode hex="003e"/>
  <outline>
    <contour>
      <point x="67" y="167" type="line" smooth="no"/>
      <point x="166" y="231" type="line" smooth="no"/>
      <point x="85" y="325" type="line" smooth="no"/>
      <point x="111" y="483" type="line" smooth="no"/>
      <point x="370" y="212" type="line" smooth="no"/>
      <point x="38" y="0" type="line" smooth="no"/>
    </contour>
  </outline>
</glyph>
<glyph name="C" format="1">
  <advance width="495"/>
  <unicode hex="0043"/>
  <outline>
    <contour>
      <point x="312" y="423" type="line" smooth="no"/>
      <point x="315" y="449"/>
      <point x="308" y="478"/>
      <point x="295" y="493"/>
      <point x="282" y="497"/>
      <point x="280" y="497" type="qcurve" smooth="yes"/>
      <point x="263" y="497"/>
      <point x="240" y="476"/>
      <point x="232" y="462" type="qcurve" smooth="no"/>
      <point x="195" y="280"/>
      <point x="185" y="223" type="qcurve" smooth="yes"/>
      <point x="185" y="203"/>
      <point x="192" y="186"/>
      <point x="206" y="174"/>
      <point x="219" y="174" type="qcurve" smooth="yes"/>
      <point x="237" y="174"/>
      <point x="260" y="189"/>
      <point x="274" y="212"/>
      <point x="281" y="239"/>
      <point x="282" y="252" type="qcurve" smooth="yes"/>
      <point x="283" y="257"/>
      <point x="283" y="268" type="line" smooth="no"/>
      <point x="293" y="268"/>
      <point x="355" y="272"/>
      <point x="428" y="276" type="qcurve" smooth="no"/>
      <point x="427" y="266"/>
      <point x="424" y="245"/>
      <point x="422" y="236" type="qcurve" smooth="yes"/>
      <point x="414" y="195"/>
      <point x="384" y="110"/>
      <point x="332" y="42"/>
      <point x="252" y="-1"/>
      <point x="194" y="-1" type="qcurve" smooth="yes"/>
      <point x="143" y="-1"/>
      <point x="77" y="27"/>
      <point x="39" y="66"/>
      <point x="25" y="107"/>
      <point x="25" y="121" type="qcurve" smooth="yes"/>
      <point x="25" y="126"/>
      <point x="27" y="146"/>
      <point x="29" y="160" type="qcurve" smooth="yes"/>
      <point x="33" y="188"/>
      <point x="77" y="440"/>
      <point x="85" y="476" type="qcurve" smooth="yes"/>
      <point x="88" y="490"/>
      <point x="98" y="522" type="line" smooth="yes"/>
      <point x="110" y="557"/>
      <point x="159" y="610"/>
      <point x="222" y="646"/>
      <point x="292" y="664"/>
      <point x="324" y="664" type="qcurve" smooth="no"/>
      <point x="345" y="663"/>
      <point x="376" y="655"/>
      <point x="412" y="639"/>
      <point x="444" y="609"/>
      <point x="466" y="564"/>
      <point x="468" y="531" type="qcurve" smooth="no"/>
      <point x="453" y="428" type="line" smooth="no"/>
    </contour>
  </outline>
</glyph>
<glyph name="G" format="1">
  <advance width="503"/>
  <unicode hex="0047"/>
  <outline>
    <contour>
      <point x="319" y="423" type="line" smooth="no"/>
      <point x="320" y="429"/>
      <point x="321" y="438"/>
      <point x="321" y="441" type="qcurve" smooth="yes"/>
      <point x="321" y="448" type="line" smooth="yes"/>
      <point x="321" y="454"/>
      <point x="316" y="470"/>
      <point x="306" y="486"/>
      <point x="289" y="497"/>
      <point x="279" y="497" type="qcurve" smooth="yes"/>
      <point x="259" y="497"/>
      <point x="228" y="458"/>
      <point x="225" y="434" type="qcurve" smooth="yes"/>
      <point x="224" y="426"/>
      <point x="220" y="387"/>
      <point x="203" y="234"/>
      <point x="200" y="201"/>
      <point x="200" y="198" type="qcurve" smooth="yes"/>
      <point x="200" y="185"/>
      <point x="221" y="167"/>
      <point x="235" y="167" type="qcurve" smooth="no"/>
      <point x="256" y="170"/>
      <point x="281" y="186"/>
      <point x="301" y="222"/>
      <point x="301" y="254" type="qcurve" smooth="no"/>
      <point x="268" y="254" type="line" smooth="no"/>
      <point x="277" y="331" type="line" smooth="no"/>
      <point x="445" y="331" type="line" smooth="no"/>
      <point x="433" y="251" type="line" smooth="yes"/>
      <point x="431" y="236"/>
      <point x="426" y="206"/>
      <point x="421" y="167"/>
      <point x="421" y="166" type="qcurve" smooth="yes"/>
      <point x="399" y="81"/>
      <point x="293" y="-9"/>
      <point x="199" y="-9" type="qcurve" smooth="yes"/>
      <point x="139" y="-9"/>
      <point x="73" y="32"/>
      <point x="43" y="86"/>
      <point x="38" y="137"/>
      <point x="38" y="147" type="qcurve" smooth="yes"/>
      <point x="38" y="178"/>
      <point x="40" y="191" type="qcurve" smooth="yes"/>
      <point x="70" y="405"/>
      <point x="81" y="474" type="qcurve" smooth="no"/>
      <point x="96" y="522"/>
      <point x="149" y="591"/>
      <point x="212" y="634"/>
      <point x="278" y="655"/>
      <point x="305" y="655" type="qcurve" smooth="yes"/>
      <point x="354" y="655"/>
      <point x="413" y="626"/>
      <point x="447" y="584"/>
      <point x="462" y="538"/>
      <point x="465" y="522" type="qcurve" smooth="no"/>
      <point x="465" y="510"/>
      <point x="464" y="495" type="qcurve" smooth="yes"/>
      <point x="460" y="445"/>
      <point x="457" y="423" type="qcurve" smooth="no"/>
    </contour>
  </outline>
</glyph>
<glyph name="I" format="1">
  <advance width="320"/>
  <unicode hex="0049"/>
  <outline>
    <contour>
      <point x="36" y="-1" type="line" smooth="no"/>
      <point x="146" y="665" type="line" smooth="no"/>
      <point x="296" y="666" type="line" smooth="no"/>
      <point x="184" y="-1" type="line" smooth="no"/>
    </contour>
  </outline>
</glyph>
<glyph name="L" format="1">
  <advance width="423"/>
  <unicode hex="004c"/>
  <outline>
    <contour>
      <point x="30" y="0" type="line" smooth="no"/>
      <point x="141" y="666" type="line" smooth="no"/>
      <point x="317" y="666" type="line" smooth="no"/>
      <point x="236" y="161" type="line" smooth="no"/>
      <point x="381" y="161" type="line" smooth="no"/>
      <point x="349" y="0" type="line" smooth="no"/>
    </contour>
  </outline>
</glyph>
<glyph name="N" format="1">
  <advance width="555"/>
  <unicode hex="004e"/>
  <outline>
    <contour>
      <point x="284" y="0" type="line" smooth="no"/>
      <point x="316" y="202" type="line" smooth="no"/>
      <point x="257" y="309" type="line" smooth="no"/>
      <point x="197" y="0" type="line" smooth="no"/>
      <point x="36" y="0" type="line" smooth="no"/>
      <point x="147" y="666" type="line" smooth="no"/>
      <point x="282" y="665" type="line" smooth="no"/>
      <point x="359" y="498" type="line" smooth="no"/>
      <point x="390" y="666" type="line" smooth="no"/>
      <point x="553" y="666" type="line" smooth="no"/>
      <point x="438" y="0" type="line" smooth="no"/>
    </contour>
  </outline>
</glyph>
<glyph name="O" format="1">
  <advance width="508"/>
  <unicode hex="004f"/>
  <outline>
    <contour>
      <point x="236" y="449" type="qcurve" smooth="yes"/>
      <point x="233" y="440"/>
      <point x="223" y="397"/>
      <point x="195" y="233"/>
      <point x="190" y="198"/>
      <point x="190" y="194" type="qcurve" smooth="yes"/>
      <point x="190" y="181"/>
      <point x="202" y="162"/>
      <point x="222" y="162" type="qcurve" smooth="yes"/>
      <point x="237" y="162"/>
      <point x="255" y="167"/>
      <point x="267" y="181"/>
      <point x="274" y="203"/>
      <point x="277" y="220" type="qcurve" smooth="yes"/>
      <point x="356" y="661" type="line" smooth="no"/>
      <point x="401" y="657"/>
      <point x="450" y="623"/>
      <point x="462" y="603" type="qcurve" smooth="yes"/>
      <point x="476" y="580"/>
      <point x="479" y="551" type="qcurve" smooth="no"/>
      <point x="477" y="542"/>
      <point x="468" y="483"/>
      <point x="413" y="166"/>
      <point x="411" y="153" type="qcurve" smooth="yes"/>
      <point x="408" y="134"/>
      <point x="387" y="81"/>
      <point x="343" y="32"/>
      <point x="273" y="-2"/>
      <point x="221" y="-2" type="qcurve" smooth="yes"/>
      <point x="187" y="-2"/>
      <point x="123" y="10"/>
      <point x="72" y="40"/>
      <point x="40" y="90"/>
      <point x="38" y="128" type="qcurve" smooth="yes"/>
      <point x="38" y="140"/>
      <point x="39" y="158"/>
      <point x="39" y="162" type="qcurve" smooth="yes"/>
      <point x="39" y="169"/>
      <point x="46" y="232"/>
      <point x="59" y="325"/>
      <point x="80" y="438"/>
      <point x="95" y="497" type="qcurve" smooth="yes"/>
      <point x="104" y="534"/>
      <point x="142" y="587"/>
      <point x="189" y="624"/>
      <point x="240" y="647"/>
      <point x="283" y="660"/>
      <point x="314" y="664"/>
      <point x="318" y="664" type="qcurve" smooth="yes"/>
      <point x="329" y="664" type="line" smooth="yes"/>
      <point x="334" y="664"/>
      <point x="342" y="663"/>
      <point x="346" y="663" type="qcurve" smooth="no"/>
      <point x="315" y="496" type="line" smooth="no"/>
      <point x="304" y="496"/>
      <point x="279" y="489"/>
      <point x="257" y="477"/>
      <point x="239" y="460"/>
    </contour>
  </outline>
</glyph>
<glyph name="P" format="1">
  <advance width="468"/>
  <unicode hex="0050"/>
  <outline>
    <contour>
      <point x="233" y="248" type="qcurve" smooth="no"/>
      <point x="235" y="261"/>
      <point x="244" y="313"/>
      <point x="255" y="384"/>
      <point x="253" y="370" type="qcurve" smooth="no"/>
      <point x="289" y="386"/>
      <point x="332" y="421"/>
      <point x="356" y="451"/>
      <point x="364" y="473"/>
      <point x="364" y="477" type="qcurve" smooth="yes"/>
      <point x="364" y="501"/>
      <point x="340" y="522"/>
      <point x="309" y="529"/>
      <point x="277" y="525"/>
      <point x="270" y="524" type="qcurve" smooth="no"/>
      <point x="179" y="0" type="line" smooth="no"/>
      <point x="30" y="0" type="line" smooth="no"/>
      <point x="140" y="665" type="line" smooth="no"/>
      <point x="353" y="667" type="line" smooth="yes"/>
      <point x="380" y="668"/>
      <point x="431" y="645"/>
      <point x="471" y="600"/>
      <point x="496" y="536"/>
      <point x="496" y="496" type="qcurve" smooth="yes"/>
      <point x="496" y="441"/>
      <point x="438" y="356"/>
      <point x="355" y="294"/>
      <point x="265" y="256"/>
    </contour>
  </outline>
</glyph>
<glyph name="Q" format="1">
  <advance width="525"/>
  <unicode hex="0051"/>
  <outline>
    <contour>
      <point x="328" y="61" type="line" smooth="no"/>
      <point x="308" y="37"/>
      <point x="259" y="12"/>
      <point x="238" y="6" type="qcurve" smooth="yes"/>
      <point x="212" y="-1"/>
      <point x="188" y="-2" type="qcurve" smooth="no"/>
      <point x="137" y="-2"/>
      <point x="76" y="35"/>
      <point x="44" y="83"/>
      <point x="34" y="127"/>
      <point x="34" y="134" type="qcurve" smooth="yes"/>
      <point x="34" y="147"/>
      <point x="35" y="177"/>
      <point x="38" y="194" type="qcurve" smooth="yes"/>
      <point x="86" y="482"/>
      <point x="92" y="512" type="qcurve" smooth="yes"/>
      <point x="97" y="540"/>
      <point x="135" y="595"/>
      <point x="191" y="638"/>
      <point x="258" y="665"/>
      <point x="292" y="665" type="qcurve" smooth="yes"/>
      <point x="326" y="665"/>
      <point x="387" y="642"/>
      <point x="432" y="600"/>
      <point x="458" y="542"/>
      <point x="458" y="507" type="qcurve" smooth="yes"/>
      <point x="457" y="467"/>
      <point x="453" y="413" type="qcurve" smooth="yes"/>
      <point x="449" y="367"/>
      <point x="434" y="237"/>
      <point x="421" y="152" type="qcurve" smooth="no"/>
      <point x="376" y="168"/>
      <point x="308" y="183"/>
      <point x="294" y="185" type="qcurve" smooth="no"/>
      <point x="296" y="200"/>
      <point x="325" y="436" type="line" smooth="yes"/>
      <point x="326" y="443"/>
      <point x="326" y="466"/>
      <point x="319" y="488"/>
      <point x="301" y="503"/>
      <point x="285" y="503" type="qcurve" smooth="yes"/>
      <point x="270" y="503"/>
      <point x="252" y="487"/>
      <point x="241" y="463"/>
      <point x="235" y="436"/>
      <point x="234" y="425" type="qcurve" smooth="no"/>
      <point x="231" y="410"/>
      <point x="227" y="378" type="qcurve" smooth="yes"/>
      <point x="199" y="181" type="line" smooth="no"/>
      <point x="212" y="179"/>
      <point x="236" y="178"/>
      <point x="245" y="178" type="qcurve" smooth="yes"/>
      <point x="265" y="178" type="line" smooth="yes"/>
      <point x="281" y="178"/>
      <point x="304" y="174" type="qcurve" smooth="yes"/>
      <point x="324" y="171"/>
      <point x="382" y="156"/>
      <point x="420" y="143" type="qcurve" smooth="no"/>
      <point x="458" y="105"/>
      <point x="519" y="26" type="line" smooth="no"/>
      <point x="505" y="24"/>
      <point x="435" y="12"/>
      <point x="365" y="1" type="qcurve" smooth="no"/>
    </contour>
  </outline>
</glyph>
<glyph name="R" format="1">
  <advance width="601"/>
  <unicode hex="0052"/>
  <outline>
    <contour>
      <point x="546" y="0" type="line" smooth="no"/>
      <point x="366" y="0" type="line" smooth="no"/>
      <point x="303" y="220" type="line" smooth="no"/>
      <point x="257" y="212" type="line" smooth="no"/>
      <point x="282" y="344" type="line" smooth="no"/>
      <point x="316" y="359"/>
      <point x="356" y="403"/>
      <point x="377" y="443"/>
      <point x="383" y="472" type="line" smooth="no"/>
      <point x="383" y="496"/>
      <point x="357" y="515"/>
      <point x="335" y="515" type="qcurve" smooth="yes"/>
      <point x="332" y="515"/>
      <point x="328" y="514" type="qcurve" smooth="yes"/>
      <point x="324" y="513"/>
      <point x="312" y="511"/>
      <point x="301" y="509" type="qcurve" smooth="no"/>
      <point x="208" y="0" type="line" smooth="no"/>
      <point x="37" y="0" type="line" smooth="no"/>
      <point x="146" y="666" type="line" smooth="no"/>
      <point x="401" y="666" type="line" smooth="yes"/>
      <point x="423" y="666"/>
      <point x="479" y="657"/>
      <point x="529" y="621"/>
      <point x="563" y="547"/>
      <point x="563" y="483" type="qcurve" smooth="no"/>
      <point x="560" y="445"/>
      <point x="546" y="406" type="qcurve" smooth="yes"/>
      <point x="533" y="372"/>
      <point x="481" y="293"/>
      <point x="431" y="258" type="qcurve" smooth="no"/>
    </contour>
  </outline>
</glyph>
<glyph name="V" format="1">
  <advance width="552"/>
  <unicode hex="0056"/>
  <outline>
    <contour>
      <point x="86" y="0" type="line" smooth="no"/>
      <point x="67" y="666" type="line" smooth="no"/>
      <point x="240" y="666" type="line" smooth="no"/>
      <point x="250" y="281" type="line" smooth="no"/>
      <point x="458" y="666" type="line" smooth="no"/>
      <point x="633" y="666" type="line" smooth="no"/>
      <point x="294" y="0" type="line" smooth="no"/>
    </contour>
  </outline>
</glyph>
<glyph name="X" format="1">
  <advance width="620"/>
  <unicode hex="0058"/>
  <outline>
    <contour>
      <point x="453" y="0" type="line" smooth="no"/>
      <point x="287" y="0" type="line" smooth="no"/>
      <point x="246" y="132" type="line" smooth="no"/>
      <point x="167" y="0" type="line" smooth="no"/>
      <point x="-28" y="0" type="line" smooth="no"/>
      <point x="200" y="329" type="line" smooth="no"/>
      <point x="93" y="666" type="line" smooth="no"/>
      <point x="258" y="666" type="line" smooth="no"/>
      <point x="311" y="494" type="line" smooth="no"/>
      <point x="438" y="666" type="line" smooth="no"/>
      <point x="634" y="666" type="line" smooth="no"/>
      <point x="366" y="312" type="line" smooth="no"/>
    </contour>
  </outline>
</glyph>
<glyph name="Y" format="1">
  <advance width="571"/>
  <unicode hex="0059"/>
  <outline>
    <contour>
      <point x="327" y="0" type="line" smooth="no"/>
      <point x="139" y="-1" type="line" smooth="no"/>
      <point x="190" y="377" type="line" smooth="no"/>
      <point x="45" y="666" type="line" smooth="no"/>
      <point x="223" y="666" type="line" smooth="no"/>
      <point x="287" y="509" type="line" smooth="no"/>
      <point x="380" y="666" type="line" smooth="no"/>
      <point x="577" y="666" type="line" smooth="no"/>
      <point x="351" y="303" type="line" smooth="no"/>
    </contour>
  </outline>
</glyph>
<glyph name="backslash" format="1">
  <advance width="514"/>
  <unicode hex="005c"/>
  <outline>
    <contour>
      <point x="191" y="688" type="line" smooth="no"/>
      <point x="453" y="36" type="line" smooth="no"/>
      <point x="312" y="-23" type="line" smooth="no"/>
      <point x="55" y="626" type="line" smooth="no"/>
    </contour>
  </outline>
</glyph>
<glyph name="underscore" format="1">
  <advance width="661"/>
  <unicode hex="005f"/>
  <outline>
    <contour>
      <point x="76" y="-21" type="line" smooth="no"/>
      <point x="607" y="-21" type="line" smooth="no"/>
      <point x="581" y="-162" type="line" smooth="no"/>
      <point x="52" y="-162" type="line" smooth="no"/>
    </contour>
  </outline>
</glyph>
<glyph name="grave" format="1">
  <advance width="260"/>
  <unicode hex="0060"/>
  <outline>
    <contour>
      <point x="176" y="781" type="line" smooth="no"/>
      <point x="218" y="639" type="line" smooth="no"/>
      <point x="62" y="639" type="line" smooth="no"/>
      <point x="20" y="781" type="line" smooth="no"/>
    </contour>
  </outline>
</glyph>
<glyph name="c" format="1">
  <advance width="511"/>
  <unicode hex="0063"/>
  <outline>
    <contour>
      <point x="468" y="403" type="qcurve" smooth="yes"/>
      <point x="483" y="377"/>
      <point x="479" y="325"/>
      <point x="465" y="315" type="qcurve" smooth="yes"/>
      <point x="445" y="302"/>
      <point x="418" y="320"/>
      <point x="410" y="331" type="qcurve" smooth="no"/>
      <point x="402" y="348"/>
      <point x="369" y="383"/>
      <point x="343" y="383" type="qcurve" smooth="yes"/>
      <point x="337" y="383"/>
      <point x="315" y="381"/>
      <point x="292" y="372"/>
      <point x="271" y="355"/>
      <point x="265" y="340" type="qcurve" smooth="no"/>
      <point x="254" y="304"/>
      <point x="236" y="235"/>
      <point x="236" y="197" type="qcurve" smooth="yes"/>
      <point x="236" y="189"/>
      <point x="238" y="173"/>
      <point x="247" y="160"/>
      <point x="265" y="151"/>
      <point x="280" y="151" type="qcurve" smooth="yes"/>
      <point x="309" y="151"/>
      <point x="355" y="184"/>
      <point x="378" y="203" type="qcurve" smooth="no"/>
      <point x="393" y="210"/>
      <point x="423" y="207"/>
      <point x="444" y="190"/>
      <point x="453" y="163"/>
      <point x="447" y="148" type="qcurve" smooth="no"/>
      <point x="405" y="73"/>
      <point x="265" y="-1"/>
      <point x="180" y="-1" type="qcurve" smooth="yes"/>
      <point x="158" y="-1"/>
      <point x="115" y="14"/>
      <point x="77" y="41"/>
      <point x="49" y="77"/>
      <point x="42" y="98" type="qcurve" smooth="yes"/>
      <point x="40" y="105"/>
      <point x="37" y="134"/>
      <point x="39" y="145" type="qcurve" smooth="yes"/>
      <point x="44" y="171"/>
      <point x="48" y="198" type="qcurve" smooth="yes"/>
      <point x="65" y="299" type="line" smooth="yes"/>
      <point x="69" y="322"/>
      <point x="94" y="361"/>
      <point x="108" y="376" type="qcurve" smooth="yes"/>
      <point x="124" y="392"/>
      <point x="169" y="426"/>
      <point x="222" y="453"/>
      <point x="283" y="471"/>
      <point x="315" y="471" type="qcurve" smooth="yes"/>
      <point x="383" y="471"/>
      <point x="451" y="433"/>
    </contour>
  </outline>
</glyph>
<glyph name="d" format="1">
  <advance width="625"/>
  <unicode hex="0064"/>
  <outline>
    <contour>
      <point x="492" y="0" type="line" smooth="no"/>
      <point x="323" y="-1" type="line" smooth="no"/>
      <point x="330" y="42" type="line" smooth="no"/>
      <point x="307" y="28"/>
      <point x="251" y="9"/>
      <point x="190" y="-2"/>
      <point x="129" y="-1"/>
      <point x="103" y="7" type="qcurve" smooth="no"/>
      <point x="61" y="28"/>
      <point x="23" y="112"/>
      <point x="25" y="157" type="qcurve" smooth="no"/>
      <point x="30" y="193"/>
      <point x="43" y="273"/>
      <point x="50" y="305" type="qcurve" smooth="no"/>
      <point x="59" y="333"/>
      <point x="98" y="386"/>
      <point x="155" y="428"/>
      <point x="229" y="454"/>
      <point x="272" y="456" type="qcurve" smooth="yes"/>
      <point x="304" y="458"/>
      <point x="356" y="444"/>
      <point x="388" y="427" type="qcurve" smooth="no"/>
      <point x="370" y="320" type="line" smooth="no"/>
      <point x="365" y="338"/>
      <point x="342" y="355"/>
      <point x="327" y="354" type="qcurve" smooth="yes"/>
      <point x="293" y="353"/>
      <point x="257" y="326"/>
      <point x="238" y="284"/>
      <point x="229" y="233"/>
      <point x="223" y="207" type="qcurve" smooth="yes"/>
      <point x="219" y="190"/>
      <point x="219" y="160"/>
      <point x="229" y="138"/>
      <point x="253" y="125"/>
      <point x="273" y="127" type="qcurve" smooth="yes"/>
      <point x="302" y="129"/>
      <point x="347" y="166"/>
      <point x="355" y="192" type="qcurve" smooth="no"/>
      <point x="440" y="666" type="line" smooth="no"/>
      <point x="609" y="666" type="line" smooth="no"/>
    </contour>
  </outline>
</glyph>
<glyph name="g" format="1">
  <advance width="608"/>
  <unicode hex="0067"/>
  <outline>
    <contour>
      <point x="481" y="-3" type="line" smooth="no"/>
      <point x="470" y="-56"/>
      <point x="422" y="-124"/>
      <point x="382" y="-150" type="qcurve" smooth="no"/>
      <point x="355" y="-164"/>
      <point x="300" y="-187"/>
      <point x="271" y="-193" type="qcurve" smooth="yes"/>
      <point x="243" y="-198"/>
      <point x="185" y="-201"/>
      <point x="161" y="-201" type="qcurve" smooth="yes"/>
      <point x="133" y="-201"/>
      <point x="105" y="-200" type="qcurve" smooth="no"/>
      <point x="106" y="-197"/>
      <point x="109" y="-179"/>
      <point x="111" y="-169" type="qcurve" smooth="yes"/>
      <point x="113" y="-158"/>
      <point x="116" y="-144" type="qcurve" smooth="no"/>
      <point x="154" y="-141"/>
      <point x="187" y="-135" type="qcurve" smooth="yes"/>
      <point x="216" y="-130"/>
      <point x="270" y="-111"/>
      <point x="282" y="-94" type="qcurve" smooth="yes"/>
      <point x="294" y="-77"/>
      <point x="317" y="-28"/>
      <point x="322" y="0" type="qcurve" smooth="yes"/>
      <point x="343" y="122"/>
      <point x="365" y="275"/>
      <point x="368" y="302" type="qcurve" smooth="yes"/>
      <point x="370" y="328"/>
      <point x="348" y="366"/>
      <point x="316" y="365" type="qcurve" smooth="no"/>
      <point x="277" y="365"/>
      <point x="235" y="318"/>
      <point x="213" y="252"/>
      <point x="202" y="150" type="line" smooth="yes"/>
      <point x="201" y="133"/>
      <point x="243" y="111"/>
      <point x="272" y="109" type="qcurve" smooth="yes"/>
      <point x="294" y="109"/>
      <point x="313" y="112"/>
      <point x="330" y="115"/>
      <point x="333" y="118" type="qcurve" smooth="no"/>
      <point x="318" y="33" type="line" smooth="no"/>
      <point x="288" y="18"/>
      <point x="217" y="0"/>
      <point x="182" y="0" type="qcurve" smooth="yes"/>
      <point x="147" y="0"/>
      <point x="87" y="20"/>
      <point x="44" y="59"/>
      <point x="22" y="117"/>
      <point x="25" y="155" type="qcurve" smooth="no"/>
      <point x="57" y="329" type="line" smooth="no"/>
      <point x="69" y="357"/>
      <point x="118" y="408"/>
      <point x="181" y="447"/>
      <point x="251" y="469"/>
      <point x="282" y="469" type="qcurve" smooth="yes"/>
      <point x="310" y="469"/>
      <point x="367" y="454"/>
      <point x="390" y="442" type="qcurve" smooth="no"/>
      <point x="395" y="469" type="line" smooth="no"/>
      <point x="558" y="469" type="line" smooth="no"/>
    </contour>
  </outline>
</glyph>
<glyph name="r" format="1">
  <advance width="552"/>
  <unicode hex="0072"/>
  <outline>
    <contour>
      <point x="544" y="346" type="qcurve" smooth="no"/>
      <point x="413" y="231" type="line" smooth="no"/>
      <point x="419" y="244"/>
      <point x="431" y="292"/>
      <point x="430" y="340"/>
      <point x="410" y="375"/>
      <point x="383" y="375" type="qcurve" smooth="yes"/>
      <point x="347" y="375"/>
      <point x="298" y="342"/>
      <point x="265" y="291"/>
      <point x="246" y="229"/>
      <point x="240" y="199" type="qcurve" smooth="yes"/>
      <point x="204" y="0" type="line" smooth="no"/>
      <point x="31" y="0" type="line" smooth="no"/>
      <point x="108" y="469" type="line" smooth="no"/>
      <point x="291" y="469" type="line" smooth="no"/>
      <point x="283" y="419" type="line" smooth="no"/>
      <point x="299" y="426"/>
      <point x="331" y="443"/>
      <point x="364" y="458"/>
      <point x="400" y="469"/>
      <point x="421" y="469" type="qcurve" smooth="yes"/>
      <point x="444" y="469"/>
      <point x="474" y="462"/>
      <point x="496" y="447"/>
      <point x="525" y="412" type="line" smooth="no"/>
      <point x="535" y="396"/>
      <point x="543" y="364"/>
    </contour>
  </outline>
</glyph>
<glyph name="t" format="1">
  <advance width="469"/>
  <unicode hex="0074"/>
  <outline>
    <contour>
      <point x="461" y="340" type="line" smooth="no"/>
      <point x="317" y="340" type="line" smooth="no"/>
      <point x="265" y="0" type="line" smooth="no"/>
      <point x="101" y="0" type="line" smooth="no"/>
      <point x="155" y="319" type="line" smooth="no"/>
      <point x="33" y="320" type="line" smooth="no"/>
      <point x="52" y="431" type="line" smooth="no"/>
      <point x="169" y="431" type="line" smooth="no"/>
      <point x="174" y="440"/>
      <point x="180" y="466"/>
      <point x="191" y="473" type="qcurve" smooth="yes"/>
      <point x="239" y="502"/>
      <point x="307" y="580"/>
      <point x="333" y="625" type="qcurve" smooth="no"/>
      <point x="345" y="641"/>
      <point x="363" y="644" type="qcurve" smooth="no"/>
      <point x="329" y="447" type="line" smooth="no"/>
      <point x="477" y="448" type="line" smooth="no"/>
    </contour>
  </outline>
</glyph>
<glyph name="u" format="1">
  <advance width="608"/>
  <unicode hex="0075"/>
  <outline>
    <contour>
      <point x="507" y="0" type="line" smooth="no"/>
      <point x="331" y="0" type="line" smooth="no"/>
      <point x="339" y="47" type="line" smooth="no"/>
      <point x="288" y="24"/>
      <point x="247" y="9"/>
      <point x="199" y="-1"/>
      <point x="170" y="-1" type="qcurve" smooth="yes"/>
      <point x="126" y="-1"/>
      <point x="74" y="24"/>
      <point x="47" y="65"/>
      <point x="42" y="115"/>
      <point x="45" y="140" type="qcurve" smooth="yes"/>
      <point x="46" y="144"/>
      <point x="51" y="177"/>
      <point x="74" y="313" type="line" smooth="yes"/>
      <point x="99" y="469" type="line" smooth="no"/>
      <point x="183" y="469" type="line" smooth="no"/>
      <point x="283" y="469" type="line" smooth="no"/>
      <point x="226" y="169"/>
      <point x="225" y="162" type="qcurve" smooth="yes"/>
      <point x="221" y="133"/>
      <point x="256" y="116"/>
      <point x="281" y="116" type="qcurve" smooth="yes"/>
      <point x="289" y="116"/>
      <point x="313" y="126"/>
      <point x="337" y="142"/>
      <point x="355" y="164"/>
      <point x="358" y="175" type="qcurve" smooth="yes"/>
      <point x="359" y="182"/>
      <point x="366" y="215"/>
      <point x="389" y="337" type="line" smooth="yes"/>
      <point x="400" y="398"/>
      <point x="415" y="469" type="qcurve" smooth="no"/>
      <point x="582" y="469" type="line" smooth="no"/>
    </contour>
  </outline>
</glyph>
<glyph name="v" format="1">
  <advance width="518"/>
  <unicode hex="0076"/>
  <outline>
    <contour>
      <point x="240" y="0" type="line" smooth="no"/>
      <point x="69" y="0" type="line" smooth="no"/>
      <point x="28" y="469" type="line" smooth="no"/>
      <point x="185" y="469" type="line" smooth="no"/>
      <point x="193" y="406"/>
      <point x="199" y="351" type="qcurve" smooth="yes"/>
      <point x="204" y="304"/>
      <point x="215" y="214"/>
      <point x="217" y="194" type="qcurve" smooth="no"/>
      <point x="221" y="197"/>
      <point x="332" y="339" type="line" smooth="yes"/>
      <point x="432" y="469" type="line" smooth="no"/>
      <point x="576" y="469" type="line" smooth="no"/>
    </contour>
  </outline>
</glyph>
<glyph name="x" format="1">
  <advance width="551"/>
  <unicode hex="0078"/>
  <outline>
    <contour>
      <point x="352" y="258" type="line" smooth="no"/>
      <point x="469" y="0" type="line" smooth="no"/>
      <point x="282" y="0" type="line" smooth="no"/>
      <point x="223" y="131" type="line" smooth="no"/>
      <point x="85" y="0" type="line" smooth="no"/>
      <point x="-68" y="0" type="line" smooth="no"/>
      <point x="171" y="234" type="line" smooth="no"/>
      <point x="60" y="469" type="line" smooth="no"/>
      <point x="246" y="469" type="line" smooth="no"/>
      <point x="303" y="358" type="line" smooth="no"/>
      <point x="418" y="469" type="line" smooth="no"/>
      <point x="570" y="469" type="line" smooth="no"/>
    </contour>
  </outline>
</glyph>
<glyph name="braceright" format="1">
  <advance width="391"/>
  <unicode hex="007d"/>
  <outline>
    <contour>
      <point x="121" y="189" type="qcurve" smooth="yes"/>
      <point x="124" y="205"/>
      <point x="144" y="240"/>
      <point x="172" y="274"/>
      <point x="206" y="307"/>
      <point x="224" y="320" type="qcurve" smooth="no"/>
      <point x="213" y="339"/>
      <point x="191" y="381"/>
      <point x="173" y="420"/>
      <point x="163" y="453"/>
      <point x="165" y="464" type="qcurve" smooth="yes"/>
      <point x="167" y="477"/>
      <point x="170" y="492"/>
      <point x="173" y="505"/>
      <point x="175" y="518"/>
      <point x="177" y="530" type="qcurve" smooth="yes"/>
      <point x="181" y="559"/>
      <point x="153" y="598"/>
      <point x="138" y="607" type="qcurve" smooth="no"/>
      <point x="159" y="760" type="line" smooth="no"/>
      <point x="207" y="744"/>
      <point x="244" y="715" type="qcurve" smooth="yes"/>
      <point x="260" y="703"/>
      <point x="289" y="670"/>
      <point x="311" y="628"/>
      <point x="322" y="576"/>
      <point x="320" y="545" type="qcurve" smooth="no"/>
      <point x="318" y="530"/>
      <point x="315" y="516" type="qcurve" smooth="yes"/>
      <point x="309" y="480"/>
      <point x="307" y="473" type="qcurve" smooth="no"/>
      <point x="305" y="458"/>
      <point x="319" y="416"/>
      <point x="341" y="373"/>
      <point x="368" y="332"/>
      <point x="380" y="318" type="qcurve" smooth="no"/>
      <point x="367" y="308"/>
      <point x="329" y="276"/>
      <point x="292" y="238"/>
      <point x="264" y="199"/>
      <point x="260" y="182" type="qcurve" smooth="no"/>
      <point x="246" y="94" type="line" smooth="yes"/>
      <point x="241" y="63"/>
      <point x="217" y="16"/>
      <point x="184" y="-18"/>
      <point x="146" y="-42"/>
      <point x="127" y="-49" type="qcurve" smooth="yes"/>
      <point x="81" y="-67"/>
      <point x="27" y="-68" type="qcurve" smooth="no"/>
      <point x="52" y="77" type="line" smooth="no"/>
      <point x="66" y="81"/>
      <point x="106" y="114"/>
      <point x="115" y="147" type="qcurve" smooth="yes"/>
      <point x="116" y="154"/>
      <point x="117" y="162" type="qcurve" smooth="yes"/>
      <point x="118" y="169"/>
      <point x="119" y="183"/>
    </contour>
  </outline>
</glyph>
<glyph name="asciitilde" format="1">
  <advance width="446"/>
  <unicode hex="007e"/>
  <outline>
    <contour>
      <point x="75" y="259" type="line" smooth="no"/>
      <point x="84" y="265"/>
      <point x="115" y="274"/>
      <point x="146" y="280"/>
      <point x="172" y="283"/>
      <point x="176" y="283" type="qcurve" smooth="yes"/>
      <point x="196" y="283"/>
      <point x="237" y="275"/>
      <point x="279" y="265"/>
      <point x="323" y="257"/>
      <point x="346" y="257" type="qcurve" smooth="yes"/>
      <point x="366" y="257"/>
      <point x="391" y="273"/>
      <point x="402" y="279" type="qcurve" smooth="no"/>
      <point x="380" y="147" type="line" smooth="no"/>
      <point x="355" y="138" type="line" smooth="yes"/>
      <point x="324" y="130"/>
      <point x="317" y="130" type="qcurve" smooth="yes"/>
      <point x="299" y="130"/>
      <point x="259" y="139"/>
      <point x="216" y="151"/>
      <point x="171" y="160"/>
      <point x="150" y="160" type="qcurve" smooth="yes"/>
      <point x="129" y="160"/>
      <point x="94" y="152"/>
      <point x="81" y="147" type="qcurve" smooth="yes"/>
      <point x="66" y="141"/>
      <point x="54" y="134" type="qcurve" smooth="no"/>
    </contour>
  </outline>
</glyph>
<glyph name="exclamdown" format="1">
  <advance width="341"/>
  <unicode hex="00a1"/>
  <outline>
    <contour>
      <point x="47" y="0" type="line" smooth="no"/>
      <point x="123" y="481" type="line" smooth="no"/>
      <point x="266" y="481" type="line" smooth="no"/>
      <point x="188" y="0" type="line" smooth="no"/>
    </contour>
    <contour>
      <point x="134" y="532" type="line" smooth="no"/>
      <point x="155" y="666" type="line" smooth="no"/>
      <point x="295" y="666" type="line" smooth="no"/>
      <point x="271" y="532" type="line" smooth="no"/>
    </contour>
  </outline>
</glyph>
<glyph name="sterling" format="1">
  <advance width="556"/>
  <unicode hex="00a3"/>
  <outline>
    <contour>
      <point x="93" y="271" type="line" smooth="no"/>
      <point x="96" y="288" type="line" smooth="no"/>
      <point x="42" y="288" type="line" smooth="no"/>
      <point x="59" y="393" type="line" smooth="no"/>
      <point x="113" y="393" type="line" smooth="no"/>
      <point x="129" y="487" type="line" smooth="yes"/>
      <point x="133" y="514"/>
      <point x="164" y="577"/>
      <point x="220" y="631"/>
      <point x="304" y="666"/>
      <point x="362" y="666" type="qcurve" smooth="yes"/>
      <point x="378" y="666"/>
      <point x="429" y="657"/>
      <point x="480" y="632"/>
      <point x="522" y="587"/>
      <point x="530" y="551" type="qcurve" smooth="yes"/>
      <point x="537" y="520"/>
      <point x="528" y="461"/>
      <point x="521" y="437" type="qcurve" smooth="no"/>
      <point x="385" y="416" type="line" smooth="no"/>
      <point x="393" y="458" type="line" smooth="yes"/>
      <point x="397" y="479"/>
      <point x="368" y="504"/>
      <point x="343" y="504" type="qcurve" smooth="yes"/>
      <point x="328" y="504"/>
      <point x="298" y="480"/>
      <point x="296" y="469" type="qcurve" smooth="yes"/>
      <point x="282" y="393" type="line" smooth="no"/>
      <point x="338" y="393" type="line" smooth="no"/>
      <point x="321" y="288" type="line" smooth="no"/>
      <point x="263" y="288" type="line" smooth="no"/>
      <point x="259" y="271" type="line" smooth="no"/>
      <point x="317" y="271" type="line" smooth="no"/>
      <point x="300" y="166" type="line" smooth="no"/>
      <point x="240" y="166" type="line" smooth="no"/>
      <point x="233" y="128" type="line" smooth="no"/>
      <point x="542" y="127" type="line" smooth="no"/>
      <point x="520" y="0" type="line" smooth="no"/>
      <point x="48" y="0" type="line" smooth="no"/>
      <point x="76" y="166" type="line" smooth="no"/>
      <point x="21" y="166" type="line" smooth="no"/>
      <point x="37" y="271" type="line" smooth="no"/>
    </contour>
  </outline>
</glyph>
<glyph name="section" format="1">
  <advance width="489"/>
  <unicode hex="00a7"/>
  <outline>
    <contour>
      <point x="210" y="387" type="qcurve" smooth="yes"/>
      <point x="210" y="370"/>
      <point x="283" y="303" type="line" smooth="yes"/>
      <point x="400" y="187" type="line" smooth="no"/>
      <point x="402" y="182"/>
      <point x="405" y="158"/>
      <point x="403" y="153" type="qcurve" smooth="no"/>
      <point x="397" y="120"/>
      <point x="372" y="37" type="line" smooth="yes"/>
      <point x="368" y="23"/>
      <point x="337" y="-11"/>
      <point x="288" y="-41"/>
      <point x="220" y="-61"/>
      <point x="178" y="-61" type="qcurve" smooth="yes"/>
      <point x="136" y="-61"/>
      <point x="76" y="-42"/>
      <point x="37" y="-16"/>
      <point x="18" y="11"/>
      <point x="18" y="20" type="qcurve" smooth="yes"/>
      <point x="17" y="30"/>
      <point x="20" y="48" type="qcurve" smooth="yes"/>
      <point x="22" y="64"/>
      <point x="30" y="116"/>
      <point x="38" y="158" type="qcurve" smooth="no"/>
      <point x="163" y="159" type="line" smooth="no"/>
      <point x="161" y="149"/>
      <point x="159" y="136"/>
      <point x="158" y="131" type="qcurve" smooth="yes"/>
      <point x="157" y="126"/>
      <point x="157" y="121" type="qcurve" smooth="yes"/>
      <point x="157" y="109"/>
      <point x="171" y="82"/>
      <point x="195" y="82" type="qcurve" smooth="yes"/>
      <point x="216" y="82"/>
      <point x="239" y="101"/>
      <point x="250" y="129"/>
      <point x="252" y="160"/>
      <point x="252" y="172" type="qcurve" smooth="no"/>
      <point x="247" y="188"/>
      <point x="216" y="221"/>
      <point x="131" y="284"/>
      <point x="95" y="315"/>
      <point x="73" y="347"/>
      <point x="76" y="363" type="qcurve" smooth="yes"/>
      <point x="79" y="383"/>
      <point x="82" y="405"/>
      <point x="85" y="422"/>
      <point x="93" y="459" type="line" smooth="yes"/>
      <point x="96" y="473"/>
      <point x="109" y="494"/>
      <point x="117" y="500" type="qcurve" smooth="no"/>
      <point x="112" y="505"/>
      <point x="107" y="524"/>
      <point x="107" y="531" type="qcurve" smooth="yes"/>
      <point x="109" y="547"/>
      <point x="111" y="565"/>
      <point x="114" y="581"/>
      <point x="118" y="600"/>
      <point x="123" y="616" type="qcurve" smooth="yes"/>
      <point x="132" y="647"/>
      <point x="181" y="693"/>
      <point x="239" y="723"/>
      <point x="295" y="737"/>
      <point x="312" y="737" type="qcurve" smooth="yes"/>
      <point x="334" y="737"/>
      <point x="384" y="725"/>
      <point x="428" y="701"/>
      <point x="461" y="664"/>
      <point x="467" y="639" type="qcurve" smooth="no"/>
      <point x="468" y="629"/>
      <point x="469" y="614" type="qcurve" smooth="yes"/>
      <point x="470" y="601"/>
      <point x="468" y="564"/>
      <point x="465" y="538" type="qcurve" smooth="no"/>
      <point x="342" y="538" type="line" smooth="no"/>
      <point x="342" y="559"/>
      <point x="328" y="582"/>
      <point x="312" y="592"/>
      <point x="298" y="594" type="line" smooth="no"/>
      <point x="272" y="594"/>
      <point x="239" y="563"/>
      <point x="239" y="550" type="qcurve" smooth="yes"/>
      <point x="239" y="535"/>
      <point x="272" y="510"/>
      <point x="375" y="455"/>
      <point x="420" y="416"/>
      <point x="446" y="365"/>
      <point x="442" y="330" type="qcurve" smooth="yes"/>
      <point x="429" y="234"/>
      <point x="418" y="216" type="qcurve" smooth="yes"/>
      <point x="415" y="211"/>
      <point x="409" y="197"/>
      <point x="406" y="195" type="qcurve" smooth="no"/>
      <point x="289" y="311" type="line" smooth="no"/>
      <point x="291" y="316"/>
      <point x="294" y="322"/>
      <point x="295" y="326"/>
      <point x="296" y="331" type="qcurve" smooth="yes"/>
      <point x="300" y="348"/>
      <point x="290" y="377"/>
      <point x="270" y="401"/>
      <point x="233" y="427" type="line" smooth="no"/>
      <point x="222" y="418"/>
      <point x="210" y="395"/>
    </contour>
  </outline>
</glyph>
<glyph name="dieresis" format="1">
  <advance width="523"/>
  <unicode hex="00a8"/>
  <outline>
    <contour>
      <point x="228" y="781" type="line" smooth="no"/>
      <point x="203" y="621" type="line" smooth="no"/>
      <point x="50" y="621" type="line" smooth="no"/>
      <point x="76" y="781" type="line" smooth="no"/>
    </contour>
    <contour>
      <point x="314" y="781" type="line" smooth="no"/>
      <point x="470" y="781" type="line" smooth="no"/>
      <point x="445" y="620" type="line" smooth="no"/>
      <point x="288" y="620" type="line" smooth="no"/>
    </contour>
  </outline>
</glyph>
<glyph name="copyright" format="1">
  <advance width="689"/>
  <unicode hex="00a9"/>
  <outline>
    <contour>
      <point x="337" y="669" type="qcurve" smooth="yes"/>
      <point x="404" y="672"/>
      <point x="507" y="639"/>
      <point x="579" y="578"/>
      <point x="619" y="496"/>
      <point x="623" y="450" type="qcurve" smooth="no"/>
      <point x="483" y="449" type="line" smooth="no"/>
      <point x="484" y="460"/>
      <point x="486" y="470" type="qcurve" smooth="yes"/>
      <point x="488" y="478"/>
      <point x="490" y="494"/>
      <point x="490" y="497" type="qcurve" smooth="yes"/>
      <point x="490" y="505"/>
      <point x="484" y="537"/>
      <point x="463" y="568"/>
      <point x="422" y="592"/>
      <point x="388" y="592" type="qcurve" smooth="yes"/>
      <point x="353" y="592"/>
      <point x="303" y="573"/>
      <point x="269" y="544"/>
      <point x="249" y="509"/>
      <point x="246" y="493" type="qcurve" smooth="yes"/>
      <point x="231" y="416"/>
      <point x="220" y="348"/>
      <point x="212" y="285"/>
      <point x="212" y="268" type="qcurve" smooth="yes"/>
      <point x="212" y="251"/>
      <point x="220" y="217"/>
      <point x="243" y="190"/>
      <point x="283" y="173"/>
      <point x="315" y="173" type="qcurve" smooth="yes"/>
      <point x="347" y="173"/>
      <point x="395" y="198"/>
      <point x="428" y="230"/>
      <point x="447" y="262"/>
      <point x="450" y="268" type="qcurve" smooth="yes"/>
      <point x="453" y="275"/>
      <point x="467" y="325"/>
      <point x="471" y="349"/>
      <point x="471" y="358" type="qcurve" smooth="no"/>
      <point x="372" y="358" type="line" smooth="no"/>
      <point x="371" y="341"/>
      <point x="367" y="329" type="qcurve" smooth="yes"/>
      <point x="363" y="318"/>
      <point x="348" y="300"/>
      <point x="334" y="300" type="qcurve" smooth="yes"/>
      <point x="326" y="300"/>
      <point x="319" y="308"/>
      <point x="316" y="319"/>
      <point x="317" y="331"/>
      <point x="318" y="336" type="qcurve" smooth="yes"/>
      <point x="319" y="342"/>
      <point x="326" y="377"/>
      <point x="335" y="415"/>
      <point x="343" y="453" type="line" smooth="yes"/>
      <point x="345" y="463"/>
      <point x="360" y="482"/>
      <point x="372" y="482" type="qcurve" smooth="yes"/>
      <point x="381" y="482"/>
      <point x="388" y="469"/>
      <point x="388" y="461" type="qcurve" smooth="yes"/>
      <point x="388" y="452"/>
      <point x="386" y="441" type="qcurve" smooth="no"/>
      <point x="622" y="442" type="line" smooth="no"/>
      <point x="623" y="428"/>
      <point x="622" y="398"/>
      <point x="620" y="384" type="qcurve" smooth="yes"/>
      <point x="611" y="325"/>
      <point x="571" y="225"/>
      <point x="504" y="149"/>
      <point x="405" y="102"/>
      <point x="337" y="98" type="qcurve" smooth="yes"/>
      <point x="260" y="93"/>
      <point x="148" y="138"/>
      <point x="77" y="218"/>
      <point x="48" y="325"/>
      <point x="54" y="384" type="qcurve" smooth="yes"/>
      <point x="60" y="444"/>
      <point x="102" y="546"/>
      <point x="173" y="622"/>
      <point x="273" y="666"/>
    </contour>
  </outline>
</glyph>
<glyph name="ordfeminine" format="1">
  <advance width="468"/>
  <unicode hex="00aa"/>
  <outline>
    <contour>
      <point x="237" y="492" type="line" smooth="no"/>
      <point x="257" y="585" type="line" smooth="yes"/>
      <point x="268" y="637"/>
      <point x="273" y="665"/>
      <point x="277" y="684"/>
      <point x="277" y="686" type="qcurve" smooth="yes"/>
      <point x="280" y="700"/>
      <point x="255" y="712"/>
      <point x="241" y="712" type="qcurve" smooth="yes"/>
      <point x="230" y="712"/>
      <point x="213" y="701"/>
      <point x="202" y="688"/>
      <point x="196" y="675"/>
      <point x="195" y="673" type="qcurve" smooth="yes"/>
      <point x="180" y="621"/>
      <point x="180" y="601" type="qcurve" smooth="yes"/>
      <point x="180" y="588"/>
      <point x="202" y="581"/>
      <point x="214" y="582" type="qcurve" smooth="yes"/>
      <point x="226" y="583"/>
      <point x="249" y="606"/>
      <point x="257" y="617" type="qcurve" smooth="no"/>
      <point x="235" y="522" type="line" smooth="no"/>
      <point x="220" y="511"/>
      <point x="196" y="498"/>
      <point x="176" y="492"/>
      <point x="157" y="491"/>
      <point x="145" y="491" type="qcurve" smooth="yes"/>
      <point x="122" y="491"/>
      <point x="82" y="509"/>
      <point x="52" y="539"/>
      <point x="38" y="578"/>
      <point x="43" y="599" type="qcurve" smooth="yes"/>
      <point x="53" y="643"/>
      <point x="72" y="711"/>
      <point x="107" y="757"/>
      <point x="167" y="781"/>
      <point x="217" y="781" type="qcurve" smooth="yes"/>
      <point x="234" y="781"/>
      <point x="281" y="769"/>
      <point x="296" y="756" type="qcurve" smooth="no"/>
      <point x="302" y="781" type="line" smooth="no"/>
      <point x="431" y="780" type="line" smooth="no"/>
      <point x="365" y="492" type="line" smooth="no"/>
    </contour>
  </outline>
</glyph>
<glyph name="guillemotleft" format="1">
  <advance width="586"/>
  <unicode hex="00ab"/>
  <outline>
    <contour>
      <point x="237" y="0" type="line" smooth="no"/>
      <point x="97" y="0" type="line" smooth="no"/>
      <point x="59" y="198" type="line" smooth="no"/>
      <point x="154" y="400" type="line" smooth="no"/>
      <point x="301" y="400" type="line" smooth="no"/>
      <point x="218" y="217" type="line" smooth="no"/>
      <point x="259" y="217" type="line" smooth="no"/>
      <point x="358" y="400" type="line" smooth="no"/>
      <point x="498" y="400" type="line" smooth="no"/>
      <point x="400" y="199" type="line" smooth="no"/>
      <point x="433" y="1" type="line" smooth="no"/>
      <point x="304" y="1" type="line" smooth="no"/>
      <point x="254" y="180" type="line" smooth="no"/>
      <point x="212" y="180" type="line" smooth="no"/>
    </contour>
  </outline>
</glyph>
<glyph name="registered" format="1">
  <advance width="689"/>
  <unicode hex="00ae"/>
  <outline>
    <contour>
      <point x="501" y="464" type="qcurve" smooth="yes"/>
      <point x="505" y="493"/>
      <point x="489" y="543"/>
      <point x="458" y="579"/>
      <point x="417" y="600"/>
      <point x="397" y="600" type="qcurve" smooth="yes"/>
      <point x="241" y="600" type="line" smooth="no"/>
      <point x="170" y="158" type="line" smooth="no"/>
      <point x="140" y="158" type="line" smooth="no"/>
      <point x="88" y="198"/>
      <point x="49" y="320"/>
      <point x="57" y="390" type="qcurve" smooth="yes"/>
      <point x="64" y="450"/>
      <point x="118" y="552"/>
      <point x="201" y="625"/>
      <point x="311" y="666"/>
      <point x="375" y="666" type="qcurve" smooth="yes"/>
      <point x="442" y="666"/>
      <point x="543" y="617"/>
      <point x="607" y="536"/>
      <point x="633" y="434"/>
      <point x="626" y="381" type="qcurve" smooth="yes"/>
      <point x="616" y="313"/>
      <point x="571" y="208"/>
      <point x="491" y="136"/>
      <point x="371" y="98"/>
      <point x="286" y="98" type="qcurve" smooth="yes"/>
      <point x="247" y="98"/>
      <point x="181" y="127"/>
      <point x="146" y="152" type="qcurve" smooth="no"/>
      <point x="281" y="153" type="line" smooth="no"/>
      <point x="336" y="496" type="line" smooth="no"/>
      <point x="357" y="499"/>
      <point x="373" y="496" type="qcurve" smooth="yes"/>
      <point x="387" y="494"/>
      <point x="408" y="479"/>
      <point x="406" y="462" type="qcurve" smooth="yes"/>
      <point x="399" y="442"/>
      <point x="382" y="420"/>
      <point x="350" y="395"/>
      <point x="324" y="383" type="qcurve" smooth="no"/>
      <point x="325" y="393"/>
      <point x="323" y="377"/>
      <point x="312" y="307"/>
      <point x="311" y="298" type="qcurve" smooth="no"/>
      <point x="316" y="300"/>
      <point x="319" y="299"/>
      <point x="325" y="301" type="qcurve" smooth="no"/>
      <point x="337" y="227" type="line" smooth="yes"/>
      <point x="342" y="199"/>
      <point x="349" y="153"/>
      <point x="350" y="153" type="qcurve" smooth="yes"/>
      <point x="469" y="153" type="line" smooth="no"/>
      <point x="415" y="343" type="line" smooth="no"/>
      <point x="434" y="355"/>
      <point x="462" y="377"/>
      <point x="483" y="404"/>
      <point x="497" y="440"/>
    </contour>
  </outline>
</glyph>
<glyph name="macron" format="1">
  <advance width="376"/>
  <unicode hex="00af"/>
  <unicode hex="02c9"/>
  <outline>
    <contour>
      <point x="79" y="781" type="line" smooth="no"/>
      <point x="329" y="781" type="line" smooth="no"/>
      <point x="309" y="653" type="line" smooth="no"/>
      <point x="59" y="653" type="line" smooth="no"/>
    </contour>
  </outline>
</glyph>
<glyph name="degree" format="1">
  <advance width="305"/>
  <unicode hex="00b0"/>
  <outline>
    <contour>
      <point x="163" y="672" type="qcurve" smooth="yes"/>
      <point x="184" y="672"/>
      <point x="225" y="659"/>
      <point x="257" y="632"/>
      <point x="277" y="589"/>
      <point x="277" y="560" type="qcurve" smooth="yes"/>
      <point x="277" y="539"/>
      <point x="266" y="510"/>
      <point x="260" y="500" type="qcurve" smooth="no"/>
      <point x="252" y="489"/>
      <point x="243" y="482" type="qcurve" smooth="no"/>
      <point x="188" y="548" type="line" smooth="no"/>
      <point x="189" y="550"/>
      <point x="191" y="553" type="qcurve" smooth="yes"/>
      <point x="192" y="555"/>
      <point x="194" y="562"/>
      <point x="194" y="565" type="qcurve" smooth="yes"/>
      <point x="194" y="570"/>
      <point x="179" y="591"/>
      <point x="168" y="591" type="qcurve" smooth="yes"/>
      <point x="157" y="591"/>
      <point x="140" y="574"/>
      <point x="140" y="562" type="qcurve" smooth="yes"/>
      <point x="140" y="549"/>
      <point x="162" y="535"/>
      <point x="168" y="535" type="qcurve" smooth="yes"/>
      <point x="172" y="535"/>
      <point x="178" y="539" type="qcurve" smooth="yes"/>
      <point x="181" y="541"/>
      <point x="183" y="543" type="qcurve" smooth="no"/>
      <point x="239" y="477" type="line" smooth="no"/>
      <point x="232" y="469"/>
      <point x="221" y="463" type="qcurve" smooth="yes"/>
      <point x="212" y="458"/>
      <point x="185" y="449"/>
      <point x="166" y="449" type="qcurve" smooth="yes"/>
      <point x="135" y="449"/>
      <point x="91" y="470"/>
      <point x="64" y="503"/>
      <point x="51" y="544"/>
      <point x="51" y="563" type="qcurve" smooth="yes"/>
      <point x="51" y="591"/>
      <point x="73" y="632"/>
      <point x="106" y="659"/>
      <point x="145" y="672"/>
    </contour>
  </outline>
</glyph>
<glyph name="twosuperior" format="1">
  <advance width="420"/>
  <unicode hex="00b2"/>
  <outline>
    <contour>
      <point x="333" y="438" type="line" smooth="no"/>
      <point x="311" y="318" type="line" smooth="no"/>
      <point x="32" y="318" type="line" smooth="no"/>
      <point x="50" y="399"/>
      <point x="133" y="534"/>
      <point x="195" y="579" type="qcurve" smooth="yes"/>
      <point x="201" y="584"/>
      <point x="221" y="598"/>
      <point x="239" y="615"/>
      <point x="252" y="633"/>
      <point x="252" y="641" type="qcurve" smooth="yes"/>
      <point x="252" y="644"/>
      <point x="240" y="653"/>
      <point x="236" y="653" type="qcurve" smooth="yes"/>
      <point x="227" y="653"/>
      <point x="210" y="641"/>
      <point x="196" y="625"/>
      <point x="185" y="607"/>
      <point x="183" y="600" type="qcurve" smooth="no"/>
      <point x="91" y="654" type="line" smooth="no"/>
      <point x="98" y="677"/>
      <point x="120" y="722"/>
      <point x="158" y="758"/>
      <point x="213" y="781"/>
      <point x="252" y="781" type="qcurve" smooth="yes"/>
      <point x="274" y="781"/>
      <point x="320" y="767"/>
      <point x="357" y="736"/>
      <point x="380" y="687"/>
      <point x="380" y="653" type="qcurve" smooth="yes"/>
      <point x="380" y="618"/>
      <point x="344" y="563"/>
      <point x="246" y="467"/>
      <point x="233" y="438" type="qcurve" smooth="no"/>
    </contour>
  </outline>
</glyph>
<glyph name="acute" format="1">
  <advance width="284"/>
  <unicode hex="00b4"/>
  <outline>
    <contour>
      <point x="237" y="781" type="line" smooth="no"/>
      <point x="211" y="620" type="line" smooth="no"/>
      <point x="58" y="620" type="line" smooth="no"/>
      <point x="85" y="781" type="line" smooth="no"/>
    </contour>
  </outline>
</glyph>
<glyph name="periodcentered" format="1">
  <advance width="282"/>
  <unicode hex="00b7"/>
  <unicode hex="2219"/>
  <outline>
    <contour>
      <point x="65" y="255" type="qcurve" smooth="yes"/>
      <point x="73" y="296"/>
      <point x="114" y="332"/>
      <point x="152" y="332" type="qcurve" smooth="yes"/>
      <point x="165" y="332"/>
      <point x="192" y="320"/>
      <point x="212" y="299"/>
      <point x="222" y="271"/>
      <point x="219" y="255" type="qcurve" smooth="yes"/>
      <point x="211" y="215"/>
      <point x="163" y="179"/>
      <point x="127" y="179" type="qcurve" smooth="yes"/>
      <point x="116" y="179"/>
      <point x="92" y="191"/>
      <point x="73" y="211"/>
      <point x="62" y="239"/>
    </contour>
  </outline>
</glyph>
<glyph name="guillemotright" format="1">
  <advance width="533"/>
  <unicode hex="00bb"/>
  <outline>
    <contour>
      <point x="194" y="0" type="line" smooth="no"/>
      <point x="54" y="0" type="line" smooth="no"/>
      <point x="152" y="201" type="line" smooth="no"/>
      <point x="119" y="399" type="line" smooth="no"/>
      <point x="248" y="399" type="line" smooth="no"/>
      <point x="298" y="217" type="line" smooth="no"/>
      <point x="350" y="217" type="line" smooth="no"/>
      <point x="324" y="400" type="line" smooth="no"/>
      <point x="464" y="400" type="line" smooth="no"/>
      <point x="502" y="202" type="line" smooth="no"/>
      <point x="407" y="0" type="line" smooth="no"/>
      <point x="260" y="0" type="line" smooth="no"/>
      <point x="342" y="180" type="line" smooth="no"/>
      <point x="291" y="180" type="line" smooth="no"/>
    </contour>
  </outline>
</glyph>
<glyph name="onequarter" format="1">
  <advance width="866"/>
  <unicode hex="00bc"/>
  <outline>
    <contour>
      <point x="101" y="318" type="line" smooth="no"/>
      <point x="157" y="598" type="line" smooth="no"/>
      <point x="58" y="565" type="line" smooth="no"/>
      <point x="89" y="688" type="line" smooth="no"/>
      <point x="210" y="781" type="line" smooth="no"/>
      <point x="334" y="781" type="line" smooth="no"/>
      <point x="252" y="318" type="line" smooth="no"/>
    </contour>
    <contour>
      <point x="608" y="671" type="line" smooth="no"/>
      <point x="351" y="22" type="line" smooth="no"/>
      <point x="205" y="72" type="line" smooth="no"/>
      <point x="466" y="720" type="line" smooth="no"/>
    </contour>
    <contour>
      <point x="806" y="180" type="line" smooth="no"/>
      <point x="790" y="84" type="line" smooth="no"/>
      <point x="752" y="84" type="line" smooth="no"/>
      <point x="736" y="0" type="line" smooth="no"/>
      <point x="590" y="0" type="line" smooth="no"/>
      <point x="627" y="221" type="line" smooth="no"/>
      <point x="608" y="197" type="line" smooth="no"/>
      <point x="584" y="86" type="line" smooth="no"/>
      <point x="453" y="86" type="line" smooth="no"/>
      <point x="475" y="200" type="line" smooth="no"/>
      <point x="671" y="463" type="line" smooth="no"/>
      <point x="816" y="463" type="line" smooth="no"/>
      <point x="769" y="179" type="line" smooth="no"/>
    </contour>
  </outline>
</glyph>
<glyph name="questiondown" format="1">
  <advance width="505"/>
  <unicode hex="00bf"/>
  <outline>
    <contour>
      <point x="333" y="242" type="line" smooth="no"/>
      <point x="330" y="233"/>
      <point x="316" y="206"/>
      <point x="295" y="181"/>
      <point x="268" y="163"/>
      <point x="253" y="163" type="qcurve" smooth="yes"/>
      <point x="241" y="163"/>
      <point x="213" y="182"/>
      <point x="213" y="204" type="qcurve" smooth="yes"/>
      <point x="213" y="215"/>
      <point x="239" y="252"/>
      <point x="277" y="294"/>
      <point x="319" y="335"/>
      <point x="334" y="352" type="qcurve" smooth="yes"/>
      <point x="358" y="378"/>
      <point x="387" y="457"/>
      <point x="396" y="505" type="qcurve" smooth="no"/>
      <point x="233" y="505" type="line" smooth="no"/>
      <point x="220" y="447"/>
      <point x="167" y="375"/>
      <point x="136" y="345" type="qcurve" smooth="yes"/>
      <point x="95" y="305"/>
      <point x="51" y="229"/>
      <point x="51" y="179" type="qcurve" smooth="yes"/>
      <point x="51" y="166"/>
      <point x="59" y="107"/>
      <point x="96" y="46"/>
      <point x="172" y="0"/>
      <point x="240" y="0" type="qcurve" smooth="yes"/>
      <point x="288" y="0"/>
      <point x="364" y="37"/>
      <point x="419" y="90"/>
      <point x="451" y="146"/>
      <point x="455" y="165" type="qcurve" smooth="no"/>
    </contour>
    <contour>
      <point x="237" y="530" type="line" smooth="no"/>
      <point x="262" y="666" type="line" smooth="no"/>
      <point x="421" y="666" type="line" smooth="no"/>
      <point x="400" y="530" type="line" smooth="no"/>
    </contour>
  </outline>
</glyph>
<glyph name="Agrave" format="1">
  <advance width="629"/>
  <unicode hex="00c0"/>
  <outline>
    <contour>
      <point x="286" y="781" type="line" smooth="no"/>
      <point x="429" y="781" type="line" smooth="no"/>
      <point x="465" y="667" type="line" smooth="no"/>
      <point x="524" y="666" type="line" smooth="no"/>
      <point x="572" y="0" type="line" smooth="no"/>
      <point x="406" y="0" type="line" smooth="no"/>
      <point x="375" y="408" type="line" smooth="no"/>
      <point x="305" y="240" type="line" smooth="no"/>
      <point x="380" y="239" type="line" smooth="no"/>
      <point x="388" y="117" type="line" smooth="no"/>
      <point x="234" y="117" type="line" smooth="no"/>
      <point x="174" y="0" type="line" smooth="no"/>
      <point x="-20" y="0" type="line" smooth="no"/>
      <point x="152" y="323" type="line" smooth="yes"/>
      <point x="328" y="659"/>
      <point x="330" y="664" type="qcurve" smooth="no"/>
    </contour>
  </outline>
</glyph>
<glyph name="Adieresis" format="1">
  <advance width="629"/>
  <unicode hex="00c4"/>
  <outline>
    <contour>
      <point x="646" y="780" type="line" smooth="no"/>
      <point x="624" y="635" type="line" smooth="no"/>
      <point x="530" y="634" type="line" smooth="no"/>
      <point x="572" y="0" type="line" smooth="no"/>
      <point x="406" y="0" type="line" smooth="no"/>
      <point x="375" y="408" type="line" smooth="no"/>
      <point x="305" y="240" type="line" smooth="no"/>
      <point x="379" y="240" type="line" smooth="no"/>
      <point x="387" y="117" type="line" smooth="no"/>
      <point x="234" y="117" type="line" smooth="no"/>
      <point x="174" y="0" type="line" smooth="no"/>
      <point x="-17" y="0" type="line" smooth="no"/>
      <point x="309" y="633" type="line" smooth="no"/>
      <point x="201" y="633" type="line" smooth="no"/>
      <point x="228" y="781" type="line" smooth="no"/>
      <point x="395" y="781" type="line" smooth="no"/>
      <point x="375" y="666" type="line" smooth="no"/>
      <point x="467" y="665" type="line" smooth="no"/>
      <point x="487" y="781" type="line" smooth="no"/>
    </contour>
  </outline>
</glyph>
<glyph name="AE" format="1">
  <advance width="829"/>
  <unicode hex="00c6"/>
  <outline>
    <contour>
      <point x="231" y="0" type="line" smooth="no"/>
      <point x="37" y="0" type="line" smooth="no"/>
      <point x="420" y="666" type="line" smooth="no"/>
      <point x="791" y="666" type="line" smooth="no"/>
      <point x="774" y="528" type="line" smooth="no"/>
      <point x="639" y="528" type="line" smooth="no"/>
      <point x="620" y="401" type="line" smooth="no"/>
      <point x="749" y="401" type="line" smooth="no"/>
      <point x="731" y="269" type="line" smooth="no"/>
      <point x="598" y="269" type="line" smooth="no"/>
      <point x="581" y="148" type="line" smooth="no"/>
      <point x="713" y="149" type="line" smooth="no"/>
      <point x="690" y="0" type="line" smooth="no"/>
      <point x="396" y="0" type="line" smooth="no"/>
      <point x="472" y="468" type="line" smooth="no"/>
      <point x="334" y="235" type="line" smooth="no"/>
      <point x="425" y="236" type="line" smooth="no"/>
      <point x="406" y="117" type="line" smooth="no"/>
      <point x="291" y="117" type="line" smooth="no"/>
    </contour>
  </outline>
</glyph>
<glyph name="Egrave" format="1">
  <advance width="452"/>
  <unicode hex="00c8"/>
  <outline>
    <contour>
      <point x="266" y="522" type="line" smooth="no"/>
      <point x="248" y="395" type="line" smooth="no"/>
      <point x="386" y="395" type="line" smooth="no"/>
      <point x="365" y="267" type="line" smooth="no"/>
      <point x="223" y="267" type="line" smooth="no"/>
      <point x="203" y="146" type="line" smooth="no"/>
      <point x="346" y="147" type="line" smooth="no"/>
      <point x="318" y="2" type="line" smooth="no"/>
      <point x="243" y="1"/>
      <point x="182" y="1" type="qcurve" smooth="yes"/>
      <point x="31" y="1" type="line" smooth="no"/>
      <point x="87" y="347" type="line" smooth="yes"/>
      <point x="139" y="667" type="line" smooth="no"/>
      <point x="206" y="667" type="line" smooth="no"/>
      <point x="175" y="781" type="line" smooth="no"/>
      <point x="330" y="781" type="line" smooth="no"/>
      <point x="364" y="666" type="line" smooth="no"/>
      <point x="424" y="666" type="line" smooth="no"/>
      <point x="406" y="522" type="line" smooth="no"/>
    </contour>
  </outline>
</glyph>
<glyph name="Eacute" format="1">
  <advance width="478"/>
  <unicode hex="00c9"/>
  <outline>
    <contour>
      <point x="390" y="781" type="line" smooth="no"/>
      <point x="368" y="666" type="line" smooth="no"/>
      <point x="453" y="666" type="line" smooth="no"/>
      <point x="430" y="511" type="line" smooth="no"/>
      <point x="291" y="511" type="line" smooth="no"/>
      <point x="273" y="394" type="line" smooth="no"/>
      <point x="416" y="394" type="line" smooth="no"/>
      <point x="396" y="249" type="line" smooth="no"/>
      <point x="249" y="249" type="line" smooth="no"/>
      <point x="232" y="141" type="line" smooth="no"/>
      <point x="385" y="141" type="line" smooth="no"/>
      <point x="366" y="-1" type="line" smooth="no"/>
      <point x="37" y="0" type="line" smooth="no"/>
      <point x="144" y="666" type="line" smooth="no"/>
      <point x="216" y="666" type="line" smooth="no"/>
      <point x="238" y="780" type="line" smooth="no"/>
    </contour>
  </outline>
</glyph>
<glyph name="Ecircumflex" format="1">
  <advance width="452"/>
  <unicode hex="00ca"/>
  <outline>
    <contour>
      <point x="173" y="721" type="line" smooth="no"/>
      <point x="307" y="794" type="line" smooth="no"/>
      <point x="427" y="742" type="line" smooth="no"/>
      <point x="386" y="658" type="line" smooth="no"/>
      <point x="288" y="702" type="line" smooth="no"/>
      <point x="203" y="643" type="line" smooth="no"/>
      <point x="337" y="643" type="line" smooth="no"/>
      <point x="423" y="643" type="line" smooth="no"/>
      <point x="402" y="512" type="line" smooth="no"/>
      <point x="266" y="512" type="line" smooth="no"/>
      <point x="248" y="390" type="line" smooth="no"/>
      <point x="385" y="390" type="line" smooth="no"/>
      <point x="365" y="262" type="line" smooth="no"/>
      <point x="223" y="262" type="line" smooth="no"/>
      <point x="204" y="141" type="line" smooth="no"/>
      <point x="346" y="142" type="line" smooth="no"/>
      <point x="321" y="2" type="line" smooth="no"/>
      <point x="246" y="1"/>
      <point x="184" y="1" type="qcurve" smooth="yes"/>
      <point x="31" y="1" type="line" smooth="no"/>
      <point x="85" y="335" type="line" smooth="yes"/>
      <point x="135" y="642" type="line" smooth="no"/>
      <point x="162" y="642" type="line" smooth="no"/>
    </contour>
  </outline>
</glyph>
<glyph name="Igrave" format="1">
  <advance width="320"/>
  <unicode hex="00cc"/>
  <outline>
    <contour>
      <point x="37" y="0" type="line" smooth="no"/>
      <point x="143" y="666" type="line" smooth="no"/>
      <point x="180" y="666" type="line" smooth="no"/>
      <point x="101" y="781" type="line" smooth="no"/>
      <point x="222" y="781" type="line" smooth="no"/>
      <point x="255" y="666" type="line" smooth="no"/>
      <point x="294" y="666" type="line" smooth="no"/>
      <point x="185" y="0" type="line" smooth="no"/>
    </contour>
  </outline>
</glyph>
<glyph name="Iacute" format="1">
  <advance width="325"/>
  <unicode hex="00cd"/>
  <outline>
    <contour>
      <point x="36" y="-1" type="line" smooth="no"/>
      <point x="146" y="666" type="line" smooth="no"/>
      <point x="202" y="667" type="line" smooth="no"/>
      <point x="221" y="781" type="line" smooth="no"/>
      <point x="340" y="781" type="line" smooth="no"/>
      <point x="266" y="666" type="line" smooth="no"/>
      <point x="297" y="666" type="line" smooth="no"/>
      <point x="184" y="-1" type="line" smooth="no"/>
    </contour>
  </outline>
</glyph>
<glyph name="Ograve" format="1">
  <advance width="508"/>
  <unicode hex="00d2"/>
  <outline>
    <contour>
      <point x="324" y="781" type="line" smooth="no"/>
      <point x="354" y="666" type="line" smooth="no"/>
      <point x="379" y="663"/>
      <point x="425" y="648"/>
      <point x="459" y="621"/>
      <point x="480" y="579"/>
      <point x="482" y="549" type="qcurve" smooth="yes"/>
      <point x="483" y="536"/>
      <point x="481" y="522"/>
      <point x="481" y="518" type="qcurve" smooth="yes"/>
      <point x="481" y="511"/>
      <point x="474" y="443"/>
      <point x="459" y="344"/>
      <point x="437" y="225"/>
      <point x="423" y="167" type="qcurve" smooth="yes"/>
      <point x="414" y="130"/>
      <point x="376" y="76"/>
      <point x="329" y="39"/>
      <point x="278" y="16"/>
      <point x="234" y="4"/>
      <point x="203" y="0"/>
      <point x="199" y="0" type="qcurve" smooth="yes"/>
      <point x="171" y="0" type="line" smooth="no"/>
      <point x="202" y="167" type="line" smooth="no"/>
      <point x="212" y="168"/>
      <point x="238" y="175"/>
      <point x="261" y="187"/>
      <point x="279" y="203"/>
      <point x="282" y="214" type="qcurve" smooth="yes"/>
      <point x="285" y="223"/>
      <point x="295" y="268"/>
      <point x="306" y="327"/>
      <point x="325" y="445"/>
      <point x="330" y="483"/>
      <point x="330" y="487" type="qcurve" smooth="yes"/>
      <point x="330" y="500"/>
      <point x="318" y="518"/>
      <point x="298" y="518" type="qcurve" smooth="yes"/>
      <point x="284" y="518"/>
      <point x="266" y="512"/>
      <point x="255" y="499"/>
      <point x="248" y="476"/>
      <point x="244" y="460" type="qcurve" smooth="no"/>
      <point x="161" y="2" type="line" smooth="no"/>
      <point x="116" y="6"/>
      <point x="67" y="41"/>
      <point x="55" y="61" type="qcurve" smooth="yes"/>
      <point x="41" y="84"/>
      <point x="38" y="112" type="qcurve" smooth="no"/>
      <point x="38" y="122"/>
      <point x="57" y="261"/>
      <point x="71" y="352"/>
      <point x="85" y="433"/>
      <point x="95" y="497"/>
      <point x="98" y="510" type="qcurve" smooth="yes"/>
      <point x="102" y="527"/>
      <point x="122" y="574"/>
      <point x="160" y="621"/>
      <point x="218" y="659"/>
      <point x="259" y="666" type="qcurve" smooth="no"/>
      <point x="176" y="781" type="line" smooth="no"/>
    </contour>
  </outline>
</glyph>
<glyph name="Oacute" format="1">
  <advance width="508"/>
  <unicode hex="00d3"/>
  <outline>
    <contour>
      <point x="321" y="781" type="line" smooth="no"/>
      <point x="448" y="781" type="line" smooth="no"/>
      <point x="390" y="652" type="line" smooth="no"/>
      <point x="428" y="640"/>
      <point x="477" y="585"/>
      <point x="479" y="536" type="qcurve" smooth="yes"/>
      <point x="481" y="497"/>
      <point x="470" y="399"/>
      <point x="453" y="298"/>
      <point x="432" y="203"/>
      <point x="423" y="167" type="qcurve" smooth="yes"/>
      <point x="408" y="105"/>
      <point x="344" y="38"/>
      <point x="273" y="6"/>
      <point x="211" y="0"/>
      <point x="199" y="0" type="qcurve" smooth="yes"/>
      <point x="189" y="0" type="line" smooth="yes"/>
      <point x="175" y="0"/>
      <point x="171" y="1" type="qcurve" smooth="no"/>
      <point x="202" y="168" type="line" smooth="no"/>
      <point x="226" y="168"/>
      <point x="255" y="176"/>
      <point x="271" y="190"/>
      <point x="279" y="207"/>
      <point x="282" y="215" type="qcurve" smooth="no"/>
      <point x="313" y="381"/>
      <point x="327" y="466"/>
      <point x="327" y="470" type="qcurve" smooth="yes"/>
      <point x="327" y="483"/>
      <point x="316" y="502"/>
      <point x="296" y="502" type="qcurve" smooth="yes"/>
      <point x="272" y="502"/>
      <point x="246" y="478"/>
      <point x="241" y="444" type="qcurve" smooth="no"/>
      <point x="161" y="3" type="line" smooth="no"/>
      <point x="116" y="6"/>
      <point x="67" y="45"/>
      <point x="54" y="67" type="qcurve" smooth="yes"/>
      <point x="39" y="93"/>
      <point x="35" y="125" type="qcurve" smooth="no"/>
      <point x="35" y="134"/>
      <point x="43" y="192"/>
      <point x="96" y="499"/>
      <point x="98" y="512" type="qcurve" smooth="yes"/>
      <point x="101" y="531"/>
      <point x="125" y="584"/>
      <point x="171" y="632"/>
      <point x="244" y="666"/>
      <point x="297" y="666" type="qcurve" smooth="yes"/>
      <point x="305" y="666"/>
      <point x="309" y="665" type="qcurve" smooth="no"/>
    </contour>
  </outline>
</glyph>
<glyph name="Ocircumflex" format="1">
  <advance width="508"/>
  <unicode hex="00d4"/>
  <outline>
    <contour>
      <point x="252" y="719" type="line" smooth="no"/>
      <point x="392" y="792" type="line" smooth="no"/>
      <point x="508" y="739" type="line" smooth="no"/>
      <point x="466" y="656" type="line" smooth="no"/>
      <point x="368" y="698" type="line" smooth="no"/>
      <point x="318" y="662" type="line" smooth="no"/>
      <point x="349" y="660"/>
      <point x="407" y="647"/>
      <point x="452" y="617"/>
      <point x="480" y="569"/>
      <point x="482" y="533" type="qcurve" smooth="yes"/>
      <point x="483" y="520"/>
      <point x="481" y="502"/>
      <point x="481" y="498" type="qcurve" smooth="yes"/>
      <point x="481" y="491"/>
      <point x="474" y="429"/>
      <point x="460" y="338"/>
      <point x="439" y="225"/>
      <point x="425" y="167" type="qcurve" smooth="yes"/>
      <point x="416" y="130"/>
      <point x="378" y="77"/>
      <point x="331" y="40"/>
      <point x="280" y="17"/>
      <point x="236" y="4"/>
      <point x="205" y="0"/>
      <point x="201" y="0" type="qcurve" smooth="yes"/>
      <point x="173" y="0" type="line" smooth="no"/>
      <point x="204" y="168" type="line" smooth="no"/>
      <point x="216" y="168"/>
      <point x="241" y="174"/>
      <point x="263" y="186"/>
      <point x="281" y="203"/>
      <point x="284" y="215" type="qcurve" smooth="yes"/>
      <point x="329" y="453"/>
      <point x="329" y="459" type="qcurve" smooth="yes"/>
      <point x="331" y="475"/>
      <point x="319" y="498"/>
      <point x="299" y="498" type="qcurve" smooth="yes"/>
      <point x="272" y="498"/>
      <point x="249" y="471"/>
      <point x="244" y="441" type="qcurve" smooth="yes"/>
      <point x="163" y="2" type="line" smooth="no"/>
      <point x="118" y="6"/>
      <point x="69" y="43"/>
      <point x="57" y="65" type="qcurve" smooth="yes"/>
      <point x="43" y="90"/>
      <point x="39" y="121" type="qcurve" smooth="no"/>
      <point x="39" y="132"/>
      <point x="47" y="190"/>
      <point x="73" y="355"/>
      <point x="98" y="494"/>
      <point x="100" y="507" type="qcurve" smooth="yes"/>
      <point x="103" y="523"/>
      <point x="121" y="567"/>
      <point x="155" y="611"/>
      <point x="207" y="647"/>
      <point x="244" y="656" type="qcurve" smooth="no"/>
    </contour>
  </outline>
</glyph>
<glyph name="Otilde" format="1">
  <advance width="508"/>
  <unicode hex="00d5"/>
  <outline>
    <contour>
      <point x="149" y="766" type="line" smooth="no"/>
      <point x="161" y="772"/>
      <point x="176" y="777" type="qcurve" smooth="yes"/>
      <point x="189" y="782"/>
      <point x="224" y="789"/>
      <point x="244" y="789" type="qcurve" smooth="yes"/>
      <point x="264" y="789"/>
      <point x="317" y="780"/>
      <point x="412" y="760"/>
      <point x="422" y="760" type="qcurve" smooth="yes"/>
      <point x="433" y="760"/>
      <point x="453" y="765"/>
      <point x="462" y="768" type="qcurve" smooth="yes"/>
      <point x="482" y="776" type="line" smooth="no"/>
      <point x="470" y="654" type="line" smooth="no"/>
      <point x="465" y="651"/>
      <point x="459" y="648" type="qcurve" smooth="yes"/>
      <point x="454" y="646"/>
      <point x="441" y="642"/>
      <point x="433" y="642" type="qcurve" smooth="no"/>
      <point x="455" y="628"/>
      <point x="480" y="576"/>
      <point x="480" y="544" type="qcurve" smooth="yes"/>
      <point x="480" y="506"/>
      <point x="469" y="405"/>
      <point x="452" y="300"/>
      <point x="432" y="202"/>
      <point x="423" y="166" type="qcurve" smooth="yes"/>
      <point x="408" y="104"/>
      <point x="343" y="37"/>
      <point x="273" y="5"/>
      <point x="211" y="-1"/>
      <point x="199" y="-1" type="qcurve" smooth="yes"/>
      <point x="189" y="-1" type="line" smooth="yes"/>
      <point x="175" y="-1"/>
      <point x="171" y="0" type="qcurve" smooth="no"/>
      <point x="202" y="167" type="line" smooth="no"/>
      <point x="214" y="167"/>
      <point x="239" y="171"/>
      <point x="261" y="181"/>
      <point x="279" y="200"/>
      <point x="282" y="214" type="qcurve" smooth="yes"/>
      <point x="293" y="268"/>
      <point x="302" y="323"/>
      <point x="322" y="432"/>
      <point x="327" y="467"/>
      <point x="328" y="471" type="qcurve" smooth="yes"/>
      <point x="330" y="484"/>
      <point x="317" y="509"/>
      <point x="297" y="509" type="qcurve" smooth="yes"/>
      <point x="268" y="509"/>
      <point x="247" y="479"/>
      <point x="242" y="451" type="qcurve" smooth="yes"/>
      <point x="161" y="2" type="line" smooth="no"/>
      <point x="116" y="5"/>
      <point x="67" y="40"/>
      <point x="55" y="60" type="qcurve" smooth="yes"/>
      <point x="41" y="83"/>
      <point x="38" y="112" type="qcurve" smooth="yes"/>
      <point x="36" y="125"/>
      <point x="44" y="188"/>
      <point x="57" y="270"/>
      <point x="89" y="442"/>
      <point x="102" y="505"/>
      <point x="104" y="518" type="qcurve" smooth="yes"/>
      <point x="107" y="532"/>
      <point x="120" y="571"/>
      <point x="146" y="610"/>
      <point x="185" y="646"/>
      <point x="213" y="658" type="qcurve" smooth="no"/>
      <point x="209" y="658"/>
      <point x="198" y="662"/>
      <point x="192" y="662" type="qcurve" smooth="yes"/>
      <point x="183" y="662"/>
      <point x="163" y="658"/>
      <point x="154" y="656" type="qcurve" smooth="yes"/>
      <point x="143" y="653"/>
      <point x="133" y="651" type="qcurve" smooth="no"/>
    </contour>
  </outline>
</glyph>
<glyph name="multiply" format="1">
  <advance width="544"/>
  <unicode hex="00d7"/>
  <outline>
    <contour>
      <point x="197" y="390" type="line" smooth="no"/>
      <point x="277" y="295" type="line" smooth="no"/>
      <point x="390" y="395" type="line" smooth="no"/>
      <point x="477" y="295" type="line" smooth="no"/>
      <point x="366" y="199" type="line" smooth="no"/>
      <point x="457" y="96" type="line" smooth="no"/>
      <point x="347" y="0" type="line" smooth="no"/>
      <point x="258" y="107" type="line" smooth="no"/>
      <point x="152" y="0" type="line" smooth="no"/>
      <point x="54" y="96" type="line" smooth="no"/>
      <point x="169" y="206" type="line" smooth="no"/>
      <point x="96" y="295" type="line" smooth="no"/>
    </contour>
  </outline>
</glyph>
<glyph name="Oslash" format="1">
  <advance width="605"/>
  <unicode hex="00d8"/>
  <outline>
    <contour>
      <point x="89" y="162" type="line" smooth="yes"/>
      <point x="89" y="169"/>
      <point x="96" y="232"/>
      <point x="109" y="325"/>
      <point x="130" y="438"/>
      <point x="145" y="497" type="qcurve" smooth="yes"/>
      <point x="154" y="534"/>
      <point x="192" y="587"/>
      <point x="239" y="624"/>
      <point x="290" y="647"/>
      <point x="333" y="660"/>
      <point x="364" y="664"/>
      <point x="368" y="664" type="qcurve" smooth="yes"/>
      <point x="379" y="664" type="line" smooth="yes"/>
      <point x="384" y="664"/>
      <point x="392" y="663"/>
      <point x="396" y="663" type="qcurve" smooth="no"/>
      <point x="365" y="496" type="line" smooth="no"/>
      <point x="354" y="496"/>
      <point x="329" y="489"/>
      <point x="307" y="477"/>
      <point x="289" y="460"/>
      <point x="286" y="449" type="qcurve" smooth="yes"/>
      <point x="283" y="440"/>
      <point x="273" y="397"/>
      <point x="245" y="233"/>
      <point x="240" y="198"/>
      <point x="240" y="194" type="qcurve" smooth="yes"/>
      <point x="240" y="181"/>
      <point x="252" y="162"/>
      <point x="272" y="162" type="qcurve" smooth="yes"/>
      <point x="301" y="162"/>
      <point x="321" y="186"/>
      <point x="327" y="220" type="qcurve" smooth="yes"/>
      <point x="406" y="661" type="line" smooth="no"/>
      <point x="464" y="756" type="line" smooth="no"/>
      <point x="589" y="685" type="line" smooth="no"/>
      <point x="525" y="571" type="line" smooth="no"/>
      <point x="527" y="566"/>
      <point x="527" y="558"/>
      <point x="528" y="556" type="qcurve" smooth="no"/>
      <point x="528" y="552"/>
      <point x="529" y="551" type="qcurve" smooth="no"/>
      <point x="527" y="542"/>
      <point x="518" y="483"/>
      <point x="463" y="166"/>
      <point x="461" y="153" type="qcurve" smooth="yes"/>
      <point x="458" y="134"/>
      <point x="437" y="81"/>
      <point x="393" y="32"/>
      <point x="323" y="-2"/>
      <point x="271" y="-2" type="qcurve" smooth="yes"/>
      <point x="245" y="-2"/>
      <point x="194" y="6"/>
      <point x="171" y="14" type="qcurve" smooth="no"/>
      <point x="128" y="-43" type="line" smooth="no"/>
      <point x="15" y="38" type="line" smooth="no"/>
      <point x="89" y="157" type="line" smooth="no"/>
    </contour>
  </outline>
</glyph>
<glyph name="Uacute" format="1">
  <advance width="549"/>
  <unicode hex="00da"/>
  <outline>
    <contour>
      <point x="280" y="781" type="line" smooth="no"/>
      <point x="406" y="781" type="line" smooth="no"/>
      <point x="299" y="634" type="line" smooth="no"/>
      <point x="279" y="634" type="line" smooth="no"/>
      <point x="223" y="284" type="line" smooth="yes"/>
      <point x="213" y="222"/>
      <point x="227" y="169"/>
      <point x="256" y="169" type="qcurve" smooth="yes"/>
      <point x="271" y="169"/>
      <point x="290" y="183"/>
      <point x="302" y="205"/>
      <point x="308" y="230"/>
      <point x="310" y="241" type="qcurve" smooth="yes"/>
      <point x="311" y="246"/>
      <point x="341" y="425"/>
      <point x="347" y="464" type="qcurve" smooth="yes"/>
      <point x="380" y="666" type="line" smooth="no"/>
      <point x="526" y="666" type="line" smooth="no"/>
      <point x="440" y="142" type="line" smooth="yes"/>
      <point x="436" y="118"/>
      <point x="405" y="68"/>
      <point x="352" y="27"/>
      <point x="281" y="0"/>
      <point x="236" y="0" type="qcurve" smooth="yes"/>
      <point x="189" y="0"/>
      <point x="125" y="22"/>
      <point x="83" y="55"/>
      <point x="60" y="95"/>
      <point x="50" y="132"/>
      <point x="48" y="162"/>
      <point x="48" y="168" type="qcurve" smooth="yes"/>
      <point x="125" y="666" type="line" smooth="no"/>
      <point x="235" y="666" type="line" smooth="no"/>
    </contour>
  </outline>
</glyph>
<glyph name="Udieresis" format="1">
  <advance width="581"/>
  <unicode hex="00dc"/>
  <outline>
    <contour>
      <point x="445" y="136" type="line" smooth="yes"/>
      <point x="440" y="112"/>
      <point x="408" y="64"/>
      <point x="354" y="25"/>
      <point x="281" y="0"/>
      <point x="236" y="0" type="qcurve" smooth="yes"/>
      <point x="166" y="0"/>
      <point x="89" y="44"/>
      <point x="53" y="100"/>
      <point x="47" y="153"/>
      <point x="48" y="162" type="qcurve" smooth="yes"/>
      <point x="61" y="256"/>
      <point x="99" y="501" type="line" smooth="yes"/>
      <point x="124" y="655" type="line" smooth="no"/>
      <point x="192" y="655" type="line" smooth="no"/>
      <point x="194" y="671" type="line" smooth="no"/>
      <point x="139" y="671" type="line" smooth="no"/>
      <point x="156" y="781" type="line" smooth="no"/>
      <point x="317" y="781" type="line" smooth="no"/>
      <point x="299" y="671" type="line" smooth="no"/>
      <point x="236" y="671" type="line" smooth="no"/>
      <point x="235" y="656" type="line" smooth="no"/>
      <point x="286" y="655" type="line" smooth="no"/>
      <point x="223" y="278" type="line" smooth="yes"/>
      <point x="213" y="216"/>
      <point x="226" y="163"/>
      <point x="254" y="163" type="qcurve" smooth="yes"/>
      <point x="266" y="163"/>
      <point x="285" y="177"/>
      <point x="299" y="199"/>
      <point x="308" y="224"/>
      <point x="310" y="235" type="qcurve" smooth="yes"/>
      <point x="377" y="655" type="line" smooth="no"/>
      <point x="445" y="656" type="line" smooth="no"/>
      <point x="446" y="671" type="line" smooth="no"/>
      <point x="390" y="671" type="line" smooth="no"/>
      <point x="409" y="781" type="line" smooth="no"/>
      <point x="565" y="781" type="line" smooth="no"/>
      <point x="548" y="671" type="line" smooth="no"/>
      <point x="493" y="671" type="line" smooth="no"/>
      <point x="492" y="655" type="line" smooth="no"/>
      <point x="530" y="654" type="line" smooth="no"/>
      <point x="496" y="439" type="line" smooth="yes"/>
    </contour>
  </outline>
</glyph>
<glyph name="Thorn" format="1">
  <advance width="597"/>
  <unicode hex="00de"/>
  <outline>
    <contour>
      <point x="184" y="-1" type="line" smooth="no"/>
      <point x="36" y="-1" type="line" smooth="no"/>
      <point x="146" y="665" type="line" smooth="no"/>
      <point x="296" y="666" type="line" smooth="no"/>
      <point x="221" y="223" type="line" smooth="no"/>
      <point x="222" y="221"/>
      <point x="231" y="211"/>
      <point x="246" y="201"/>
      <point x="267" y="192"/>
      <point x="280" y="192" type="qcurve" smooth="yes"/>
      <point x="300" y="192"/>
      <point x="328" y="204"/>
      <point x="347" y="221"/>
      <point x="357" y="238"/>
      <point x="360" y="244" type="qcurve" smooth="yes"/>
      <point x="363" y="249"/>
      <point x="369" y="277"/>
      <point x="380" y="336"/>
      <point x="381" y="341" type="qcurve" smooth="yes"/>
      <point x="383" y="350"/>
      <point x="384" y="387"/>
      <point x="378" y="399" type="qcurve" smooth="no"/>
      <point x="373" y="412"/>
      <point x="349" y="419"/>
      <point x="329" y="417" type="qcurve" smooth="yes"/>
      <point x="319" y="416"/>
      <point x="296" y="406"/>
      <point x="285" y="399" type="qcurve" smooth="yes"/>
      <point x="273" y="391"/>
      <point x="261" y="381" type="qcurve" smooth="no"/>
      <point x="281" y="508" type="line" smooth="no"/>
      <point x="300" y="523"/>
      <point x="322" y="535" type="qcurve" smooth="yes"/>
      <point x="341" y="546"/>
      <point x="392" y="564"/>
      <point x="422" y="566" type="qcurve" smooth="yes"/>
      <point x="440" y="567"/>
      <point x="492" y="550"/>
      <point x="539" y="517"/>
      <point x="572" y="468"/>
      <point x="572" y="437" type="qcurve" smooth="yes"/>
      <point x="572" y="380"/>
      <point x="549" y="281"/>
      <point x="539" y="245" type="qcurve" smooth="yes"/>
      <point x="536" y="234"/>
      <point x="508" y="186"/>
      <point x="458" y="136"/>
      <point x="386" y="99"/>
      <point x="338" y="99" type="qcurve" smooth="yes"/>
      <point x="281" y="99"/>
      <point x="220" y="122"/>
      <point x="206" y="131" type="qcurve" smooth="no"/>
    </contour>
  </outline>
</glyph>
<glyph name="aacute" format="1">
  <advance width="623"/>
  <unicode hex="00e1"/>
  <outline>
    <contour>
      <point x="257" y="594" type="line" smooth="no"/>
      <point x="398" y="594" type="line" smooth="no"/>
      <point x="342" y="460" type="line" smooth="no"/>
      <point x="363" y="453"/>
      <point x="403" y="433"/>
      <point x="414" y="419" type="qcurve" smooth="no"/>
      <point x="422" y="469" type="line" smooth="no"/>
      <point x="577" y="469" type="line" smooth="no"/>
      <point x="498" y="-1" type="line" smooth="no"/>
      <point x="332" y="0" type="line" smooth="no"/>
      <point x="390" y="337" type="line" smooth="no"/>
      <point x="388" y="348" type="line" smooth="no"/>
      <point x="384" y="356"/>
      <point x="377" y="363" type="qcurve" smooth="yes"/>
      <point x="370" y="369"/>
      <point x="348" y="379"/>
      <point x="328" y="379" type="qcurve" smooth="yes"/>
      <point x="308" y="379"/>
      <point x="279" y="361"/>
      <point x="260" y="338"/>
      <point x="250" y="316"/>
      <point x="249" y="312" type="qcurve" smooth="yes"/>
      <point x="248" y="307"/>
      <point x="240" y="271"/>
      <point x="231" y="226"/>
      <point x="224" y="183"/>
      <point x="224" y="172" type="qcurve" smooth="yes"/>
      <point x="224" y="160"/>
      <point x="240" y="147"/>
      <point x="262" y="139"/>
      <point x="285" y="137"/>
      <point x="292" y="137" type="qcurve" smooth="yes"/>
      <point x="300" y="137"/>
      <point x="320" y="148"/>
      <point x="330" y="156" type="qcurve" smooth="yes"/>
      <point x="341" y="164"/>
      <point x="353" y="175" type="qcurve" smooth="no"/>
      <point x="332" y="61" type="line" smooth="no"/>
      <point x="309" y="44"/>
      <point x="273" y="20"/>
      <point x="240" y="5"/>
      <point x="206" y="-1"/>
      <point x="185" y="-1" type="qcurve" smooth="yes"/>
      <point x="152" y="-1"/>
      <point x="96" y="18"/>
      <point x="55" y="48"/>
      <point x="31" y="86"/>
      <point x="31" y="104" type="qcurve" smooth="yes"/>
      <point x="31" y="111"/>
      <point x="33" y="133"/>
      <point x="36" y="148" type="qcurve" smooth="yes"/>
      <point x="51" y="231" type="line" smooth="yes"/>
      <point x="69" y="325"/>
      <point x="72" y="337" type="qcurve" smooth="no"/>
      <point x="98" y="393"/>
      <point x="185" y="453"/>
      <point x="235" y="464" type="qcurve" smooth="no"/>
    </contour>
  </outline>
</glyph>
<glyph name="atilde" format="1">
  <advance width="623"/>
  <unicode hex="00e3"/>
  <outline>
    <contour>
      <point x="498" y="-1" type="line" smooth="no"/>
      <point x="332" y="0" type="line" smooth="no"/>
      <point x="390" y="337" type="line" smooth="no"/>
      <point x="388" y="348" type="line" smooth="no"/>
      <point x="384" y="356"/>
      <point x="377" y="363" type="qcurve" smooth="yes"/>
      <point x="370" y="369"/>
      <point x="348" y="379"/>
      <point x="328" y="379" type="qcurve" smooth="yes"/>
      <point x="308" y="379"/>
      <point x="279" y="361"/>
      <point x="260" y="338"/>
      <point x="250" y="316"/>
      <point x="249" y="312" type="qcurve" smooth="yes"/>
      <point x="248" y="307"/>
      <point x="240" y="271"/>
      <point x="231" y="226"/>
      <point x="224" y="183"/>
      <point x="224" y="172" type="qcurve" smooth="yes"/>
      <point x="224" y="160"/>
      <point x="240" y="147"/>
      <point x="262" y="139"/>
      <point x="285" y="137"/>
      <point x="292" y="137" type="qcurve" smooth="yes"/>
      <point x="300" y="137"/>
      <point x="320" y="148"/>
      <point x="330" y="156" type="qcurve" smooth="yes"/>
      <point x="341" y="164"/>
      <point x="353" y="175" type="qcurve" smooth="no"/>
      <point x="332" y="61" type="line" smooth="no"/>
      <point x="309" y="44"/>
      <point x="273" y="20"/>
      <point x="240" y="5"/>
      <point x="206" y="-1"/>
      <point x="185" y="-1" type="qcurve" smooth="yes"/>
      <point x="152" y="-1"/>
      <point x="96" y="18"/>
      <point x="55" y="48"/>
      <point x="31" y="86"/>
      <point x="31" y="104" type="qcurve" smooth="yes"/>
      <point x="31" y="111"/>
      <point x="33" y="133"/>
      <point x="36" y="148" type="qcurve" smooth="yes"/>
      <point x="51" y="231" type="line" smooth="yes"/>
      <point x="69" y="325"/>
      <point x="72" y="337" type="qcurve" smooth="no"/>
      <point x="90" y="376"/>
      <point x="146" y="429"/>
      <point x="179" y="445" type="qcurve" smooth="no"/>
      <point x="193" y="562" type="line" smooth="no"/>
      <point x="213" y="572"/>
      <point x="234" y="581" type="qcurve" smooth="yes"/>
      <point x="251" y="589"/>
      <point x="293" y="603"/>
      <point x="312" y="606" type="qcurve" smooth="yes"/>
      <point x="338" y="610"/>
      <point x="411" y="607"/>
      <point x="442" y="612" type="qcurve" smooth="yes"/>
      <point x="478" y="618"/>
      <point x="528" y="639"/>
      <point x="545" y="649" type="qcurve" smooth="no"/>
      <point x="528" y="530" type="line" smooth="no"/>
      <point x="511" y="519"/>
      <point x="459" y="506"/>
      <point x="429" y="504" type="qcurve" smooth="yes"/>
      <point x="392" y="501"/>
      <point x="329" y="502"/>
      <point x="303" y="498" type="qcurve" smooth="yes"/>
      <point x="288" y="496"/>
      <point x="250" y="476"/>
      <point x="234" y="462" type="qcurve" smooth="no"/>
      <point x="251" y="467"/>
      <point x="270" y="469"/>
      <point x="287" y="469" type="qcurve" smooth="yes"/>
      <point x="301" y="469"/>
      <point x="337" y="462"/>
      <point x="373" y="449"/>
      <point x="404" y="431"/>
      <point x="414" y="419" type="qcurve" smooth="no"/>
      <point x="422" y="469" type="line" smooth="no"/>
      <point x="577" y="469" type="line" smooth="no"/>
    </contour>
  </outline>
</glyph>
<glyph name="aring" format="1">
  <advance width="618"/>
  <unicode hex="00e5"/>
  <outline>
    <contour>
      <point x="498" y="-1" type="line" smooth="no"/>
      <point x="332" y="0" type="line" smooth="no"/>
      <point x="390" y="337" type="line" smooth="no"/>
      <point x="388" y="348" type="line" smooth="no"/>
      <point x="384" y="356"/>
      <point x="377" y="363" type="qcurve" smooth="yes"/>
      <point x="370" y="369"/>
      <point x="348" y="379"/>
      <point x="328" y="379" type="qcurve" smooth="yes"/>
      <point x="308" y="379"/>
      <point x="279" y="361"/>
      <point x="260" y="338"/>
      <point x="250" y="316"/>
      <point x="249" y="312" type="qcurve" smooth="yes"/>
      <point x="248" y="307"/>
      <point x="240" y="271"/>
      <point x="231" y="226"/>
      <point x="224" y="183"/>
      <point x="224" y="172" type="qcurve" smooth="yes"/>
      <point x="224" y="160"/>
      <point x="240" y="147"/>
      <point x="262" y="139"/>
      <point x="285" y="137"/>
      <point x="292" y="137" type="qcurve" smooth="yes"/>
      <point x="300" y="137"/>
      <point x="320" y="148"/>
      <point x="330" y="156" type="qcurve" smooth="yes"/>
      <point x="341" y="164"/>
      <point x="353" y="175" type="qcurve" smooth="no"/>
      <point x="332" y="61" type="line" smooth="no"/>
      <point x="309" y="44"/>
      <point x="273" y="20"/>
      <point x="240" y="5"/>
      <point x="206" y="-1"/>
      <point x="185" y="-1" type="qcurve" smooth="yes"/>
      <point x="152" y="-1"/>
      <point x="96" y="18"/>
      <point x="55" y="48"/>
      <point x="31" y="86"/>
      <point x="31" y="104" type="qcurve" smooth="yes"/>
      <point x="31" y="111"/>
      <point x="33" y="133"/>
      <point x="36" y="148" type="qcurve" smooth="yes"/>
      <point x="51" y="231" type="line" smooth="yes"/>
      <point x="69" y="325"/>
      <point x="72" y="337" type="qcurve" smooth="no"/>
      <point x="94" y="383"/>
      <point x="164" y="443"/>
      <point x="206" y="455" type="qcurve" smooth="no"/>
      <point x="184" y="470"/>
      <point x="162" y="520"/>
      <point x="162" y="543" type="qcurve" smooth="yes"/>
      <point x="162" y="571"/>
      <point x="184" y="612"/>
      <point x="217" y="639"/>
      <point x="257" y="652"/>
      <point x="275" y="652" type="qcurve" smooth="yes"/>
      <point x="296" y="652"/>
      <point x="336" y="639"/>
      <point x="368" y="612"/>
      <point x="388" y="570"/>
      <point x="388" y="540" type="qcurve" smooth="yes"/>
      <point x="388" y="519"/>
      <point x="377" y="490"/>
      <point x="371" y="480" type="qcurve" smooth="yes"/>
      <point x="364" y="469"/>
      <point x="355" y="462" type="qcurve" smooth="no"/>
      <point x="299" y="528" type="line" smooth="no"/>
      <point x="300" y="530"/>
      <point x="302" y="533" type="qcurve" smooth="yes"/>
      <point x="303" y="535"/>
      <point x="305" y="542"/>
      <point x="305" y="545" type="qcurve" smooth="yes"/>
      <point x="305" y="550"/>
      <point x="291" y="571"/>
      <point x="279" y="571" type="qcurve" smooth="yes"/>
      <point x="268" y="571"/>
      <point x="252" y="555"/>
      <point x="252" y="542" type="qcurve" smooth="yes"/>
      <point x="252" y="529"/>
      <point x="274" y="515"/>
      <point x="279" y="515" type="qcurve" smooth="yes"/>
      <point x="284" y="515"/>
      <point x="290" y="519" type="qcurve" smooth="yes"/>
      <point x="293" y="521"/>
      <point x="295" y="523" type="qcurve" smooth="no"/>
      <point x="350" y="457" type="line" smooth="no"/>
      <point x="369" y="451"/>
      <point x="403" y="432"/>
      <point x="414" y="419" type="qcurve" smooth="no"/>
      <point x="422" y="469" type="line" smooth="no"/>
      <point x="577" y="469" type="line" smooth="no"/>
    </contour>
  </outline>
</glyph>
<glyph name="ae" format="1">
  <advance width="805"/>
  <unicode hex="00e6"/>
  <outline>
    <contour>
      <point x="639" y="468" type="qcurve" smooth="yes"/>
      <point x="659" y="468"/>
      <point x="706" y="453"/>
      <point x="745" y="423"/>
      <point x="769" y="377"/>
      <point x="766" y="346" type="qcurve" smooth="yes"/>
      <point x="762" y="306"/>
      <point x="725" y="255"/>
      <point x="675" y="227"/>
      <point x="619" y="216"/>
      <point x="595" y="216" type="qcurve" smooth="yes"/>
      <point x="565" y="216" type="line" smooth="yes"/>
      <point x="558" y="216"/>
      <point x="551" y="217" type="qcurve" smooth="no"/>
      <point x="561" y="277" type="line" smooth="no"/>
      <point x="578" y="277" type="line" smooth="yes"/>
      <point x="593" y="277"/>
      <point x="613" y="280" type="qcurve" smooth="no"/>
      <point x="629" y="281"/>
      <point x="649" y="292"/>
      <point x="660" y="305"/>
      <point x="664" y="320"/>
      <point x="664" y="325" type="qcurve" smooth="yes"/>
      <point x="665" y="334"/>
      <point x="641" y="349"/>
      <point x="621" y="349" type="qcurve" smooth="yes"/>
      <point x="609" y="349"/>
      <point x="586" y="337"/>
      <point x="567" y="319"/>
      <point x="554" y="297"/>
      <point x="552" y="286" type="qcurve" smooth="yes"/>
      <point x="547" y="256"/>
      <point x="538" y="178" type="line" smooth="yes"/>
      <point x="536" y="164"/>
      <point x="563" y="140"/>
      <point x="586" y="140" type="qcurve" smooth="yes"/>
      <point x="605" y="140"/>
      <point x="649" y="171"/>
      <point x="672" y="185" type="qcurve" smooth="yes"/>
      <point x="679" y="189"/>
      <point x="701" y="178"/>
      <point x="720" y="158"/>
      <point x="730" y="136"/>
      <point x="725" y="129" type="qcurve" smooth="yes"/>
      <point x="722" y="124"/>
      <point x="686" y="83"/>
      <point x="626" y="37"/>
      <point x="543" y="0"/>
      <point x="494" y="0" type="qcurve" smooth="yes"/>
      <point x="454" y="0"/>
      <point x="399" y="14"/>
      <point x="365" y="38"/>
      <point x="352" y="69"/>
      <point x="355" y="86" type="qcurve" smooth="yes"/>
      <point x="376" y="215" type="line" smooth="no"/>
      <point x="371" y="219"/>
      <point x="361" y="228"/>
      <point x="345" y="235"/>
      <point x="320" y="239"/>
      <point x="300" y="239" type="qcurve" smooth="yes"/>
      <point x="288" y="239"/>
      <point x="263" y="230"/>
      <point x="242" y="215"/>
      <point x="228" y="196"/>
      <point x="227" y="186" type="qcurve" smooth="yes"/>
      <point x="224" y="170"/>
      <point x="232" y="150"/>
      <point x="248" y="140"/>
      <point x="269" y="136"/>
      <point x="280" y="137" type="qcurve" smooth="yes"/>
      <point x="291" y="138"/>
      <point x="317" y="151"/>
      <point x="330" y="159" type="qcurve" smooth="yes"/>
      <point x="344" y="168"/>
      <point x="360" y="180" type="qcurve" smooth="no"/>
      <point x="342" y="69" type="line" smooth="no"/>
      <point x="323" y="50"/>
      <point x="293" y="24"/>
      <point x="260" y="7"/>
      <point x="218" y="0"/>
      <point x="185" y="0" type="qcurve" smooth="yes"/>
      <point x="152" y="0"/>
      <point x="104" y="17"/>
      <point x="72" y="46"/>
      <point x="55" y="82"/>
      <point x="54" y="102" type="qcurve" smooth="no"/>
      <point x="52" y="121"/>
      <point x="60" y="155"/>
      <point x="65" y="181" type="qcurve" smooth="yes"/>
      <point x="72" y="223"/>
      <point x="124" y="281"/>
      <point x="192" y="315"/>
      <point x="268" y="330"/>
      <point x="301" y="330" type="qcurve" smooth="yes"/>
      <point x="326" y="330"/>
      <point x="372" y="313"/>
      <point x="393" y="301" type="qcurve" smooth="no"/>
      <point x="396" y="314" type="line" smooth="yes"/>
      <point x="397" y="320"/>
      <point x="398" y="346"/>
      <point x="388" y="371"/>
      <point x="361" y="391"/>
      <point x="334" y="391" type="qcurve" smooth="yes"/>
      <point x="313" y="391"/>
      <point x="287" y="379"/>
      <point x="279" y="372" type="qcurve" smooth="yes"/>
      <point x="270" y="363"/>
      <point x="267" y="353" type="qcurve" smooth="no"/>
      <point x="182" y="402" type="line" smooth="no"/>
      <point x="197" y="421"/>
      <point x="219" y="436" type="qcurve" smooth="yes"/>
      <point x="238" y="449"/>
      <point x="294" y="470"/>
      <point x="334" y="470" type="qcurve" smooth="yes"/>
      <point x="392" y="470"/>
      <point x="462" y="440"/>
      <point x="484" y="417" type="qcurve" smooth="no"/>
      <point x="491" y="424"/>
      <point x="517" y="442"/>
      <point x="554" y="458"/>
      <point x="606" y="468"/>
    </contour>
  </outline>
</glyph>
<glyph name="edieresis" format="1">
  <advance width="471"/>
  <unicode hex="00eb"/>
  <outline>
    <contour>
      <point x="449" y="594" type="line" smooth="no"/>
      <point x="431" y="478" type="line" smooth="no"/>
      <point x="386" y="478" type="line" smooth="no"/>
      <point x="380" y="441" type="line" smooth="no"/>
      <point x="400" y="428"/>
      <point x="426" y="389"/>
      <point x="429" y="361" type="qcurve" smooth="yes"/>
      <point x="433" y="321"/>
      <point x="405" y="271"/>
      <point x="362" y="243"/>
      <point x="316" y="231"/>
      <point x="302" y="230" type="qcurve" smooth="yes"/>
      <point x="294" y="229"/>
      <point x="265" y="229"/>
      <point x="250" y="230" type="qcurve" smooth="no"/>
      <point x="232" y="230"/>
      <point x="213" y="231" type="qcurve" smooth="no"/>
      <point x="228" y="287" type="line" smooth="no"/>
      <point x="234" y="288"/>
      <point x="242" y="289" type="qcurve" smooth="yes"/>
      <point x="249" y="290"/>
      <point x="266" y="292"/>
      <point x="275" y="294" type="qcurve" smooth="no"/>
      <point x="307" y="297"/>
      <point x="328" y="328"/>
      <point x="326" y="339" type="qcurve" smooth="yes"/>
      <point x="326" y="340"/>
      <point x="324" y="348"/>
      <point x="318" y="357"/>
      <point x="307" y="364"/>
      <point x="297" y="364" type="qcurve" smooth="yes"/>
      <point x="238" y="364"/>
      <point x="219" y="286" type="qcurve" smooth="yes"/>
      <point x="216" y="272"/>
      <point x="208" y="238"/>
      <point x="202" y="208"/>
      <point x="198" y="186"/>
      <point x="198" y="182" type="qcurve" smooth="yes"/>
      <point x="198" y="173"/>
      <point x="210" y="162"/>
      <point x="227" y="158"/>
      <point x="243" y="157"/>
      <point x="247" y="157" type="qcurve" smooth="yes"/>
      <point x="260" y="157"/>
      <point x="326" y="197" type="line" smooth="yes"/>
      <point x="337" y="204"/>
      <point x="364" y="198"/>
      <point x="385" y="179"/>
      <point x="393" y="149"/>
      <point x="386" y="133" type="qcurve" smooth="yes"/>
      <point x="384" y="128"/>
      <point x="351" y="85"/>
      <point x="297" y="38"/>
      <point x="222" y="0"/>
      <point x="178" y="0" type="qcurve" smooth="yes"/>
      <point x="132" y="0"/>
      <point x="72" y="29"/>
      <point x="37" y="67"/>
      <point x="24" y="104"/>
      <point x="25" y="111" type="qcurve" smooth="yes"/>
      <point x="48" y="270" type="line" smooth="yes"/>
      <point x="52" y="300"/>
      <point x="78" y="356"/>
      <point x="117" y="403"/>
      <point x="167" y="441"/>
      <point x="194" y="453" type="qcurve" smooth="no"/>
      <point x="198" y="478" type="line" smooth="no"/>
      <point x="142" y="478" type="line" smooth="no"/>
      <point x="159" y="594" type="line" smooth="no"/>
      <point x="296" y="594" type="line" smooth="no"/>
      <point x="278" y="478" type="line" smooth="no"/>
      <point x="233" y="478" type="line" smooth="no"/>
      <point x="231" y="465" type="line" smooth="no"/>
      <point x="254" y="470"/>
      <point x="274" y="470" type="qcurve" smooth="yes"/>
      <point x="293" y="470"/>
      <point x="331" y="464"/>
      <point x="348" y="457" type="qcurve" smooth="no"/>
      <point x="351" y="478" type="line" smooth="no"/>
      <point x="295" y="478" type="line" smooth="no"/>
      <point x="312" y="594" type="line" smooth="no"/>
    </contour>
  </outline>
</glyph>
<glyph name="igrave" format="1">
  <advance width="354"/>
  <unicode hex="00ec"/>
  <outline>
    <contour>
      <point x="257" y="445" type="line" smooth="no"/>
      <point x="298" y="445" type="line" smooth="no"/>
      <point x="220" y="0" type="line" smooth="no"/>
      <point x="59" y="0" type="line" smooth="no"/>
      <point x="134" y="446" type="line" smooth="no"/>
      <point x="170" y="446" type="line" smooth="no"/>
      <point x="121" y="594" type="line" smooth="no"/>
      <point x="267" y="594" type="line" smooth="no"/>
    </contour>
  </outline>
</glyph>
<glyph name="iacute" format="1">
  <advance width="354"/>
  <unicode hex="00ed"/>
  <outline>
    <contour>
      <point x="261" y="445" type="line" smooth="no"/>
      <point x="298" y="445" type="line" smooth="no"/>
      <point x="220" y="0" type="line" smooth="no"/>
      <point x="59" y="0" type="line" smooth="no"/>
      <point x="134" y="446" type="line" smooth="no"/>
      <point x="172" y="446" type="line" smooth="no"/>
      <point x="174" y="594" type="line" smooth="no"/>
      <point x="321" y="594" type="line" smooth="no"/>
    </contour>
  </outline>
</glyph>
<glyph name="icircumflex" format="1">
  <advance width="430"/>
  <unicode hex="00ee"/>
  <outline>
    <contour>
      <point x="171" y="525" type="line" smooth="no"/>
      <point x="283" y="620" type="line" smooth="no"/>
      <point x="405" y="573" type="line" smooth="no"/>
      <point x="392" y="484" type="line" smooth="no"/>
      <point x="268" y="517" type="line" smooth="no"/>
      <point x="191" y="446" type="line" smooth="no"/>
      <point x="257" y="446"/>
      <point x="277" y="445"/>
      <point x="298" y="445" type="qcurve" smooth="no"/>
      <point x="220" y="0" type="line" smooth="no"/>
      <point x="59" y="0" type="line" smooth="no"/>
      <point x="134" y="446" type="line" smooth="no"/>
      <point x="159" y="446" type="line" smooth="no"/>
    </contour>
  </outline>
</glyph>
<glyph name="ntilde" format="1">
  <advance width="643"/>
  <unicode hex="00f1"/>
  <outline>
    <contour>
      <point x="192" y="562" type="line" smooth="no"/>
      <point x="203" y="566"/>
      <point x="263" y="593"/>
      <point x="297" y="604"/>
      <point x="313" y="607" type="qcurve" smooth="yes"/>
      <point x="321" y="608"/>
      <point x="390" y="608"/>
      <point x="427" y="609"/>
      <point x="440" y="611" type="qcurve" smooth="yes"/>
      <point x="454" y="613"/>
      <point x="490" y="625"/>
      <point x="506" y="631" type="qcurve" smooth="yes"/>
      <point x="524" y="638"/>
      <point x="544" y="647" type="qcurve" smooth="no"/>
      <point x="526" y="530" type="line" smooth="no"/>
      <point x="511" y="524"/>
      <point x="495" y="520" type="qcurve" smooth="yes"/>
      <point x="451" y="508"/>
      <point x="437" y="506" type="qcurve" smooth="yes"/>
      <point x="426" y="504"/>
      <point x="388" y="503"/>
      <point x="346" y="501"/>
      <point x="304" y="498"/>
      <point x="288" y="494" type="qcurve" smooth="yes"/>
      <point x="275" y="491"/>
      <point x="253" y="477"/>
      <point x="243" y="469" type="qcurve" smooth="no"/>
      <point x="308" y="469" type="line" smooth="no"/>
      <point x="298" y="411" type="line" smooth="no"/>
      <point x="313" y="424"/>
      <point x="364" y="446"/>
      <point x="423" y="463"/>
      <point x="479" y="472"/>
      <point x="498" y="472" type="qcurve" smooth="yes"/>
      <point x="526" y="472"/>
      <point x="574" y="460"/>
      <point x="607" y="433"/>
      <point x="623" y="391"/>
      <point x="619" y="361" type="qcurve" smooth="yes"/>
      <point x="567" y="0" type="line" smooth="no"/>
      <point x="368" y="0" type="line" smooth="no"/>
      <point x="426" y="323" type="line" smooth="yes"/>
      <point x="431" y="351"/>
      <point x="405" y="376"/>
      <point x="381" y="376" type="qcurve" smooth="yes"/>
      <point x="339" y="376"/>
      <point x="285" y="337"/>
      <point x="280" y="315" type="qcurve" smooth="yes"/>
      <point x="276" y="297"/>
      <point x="247" y="147"/>
      <point x="243" y="122" type="qcurve" smooth="yes"/>
      <point x="232" y="63"/>
      <point x="222" y="0" type="qcurve" smooth="no"/>
      <point x="47" y="0" type="line" smooth="no"/>
      <point x="132" y="469" type="line" smooth="no"/>
      <point x="180" y="469" type="line" smooth="no"/>
      <point x="192" y="562" type="line" smooth="no"/>
    </contour>
  </outline>
</glyph>
<glyph name="odieresis" format="1">
  <advance width="500"/>
  <unicode hex="00f6"/>
  <outline>
    <contour>
      <point x="429" y="443" type="line" smooth="no"/>
      <point x="449" y="429"/>
      <point x="481" y="388"/>
      <point x="482" y="361" type="qcurve" smooth="yes"/>
      <point x="482" y="350"/>
      <point x="475" y="304"/>
      <point x="466" y="251"/>
      <point x="456" y="201"/>
      <point x="453" y="188" type="qcurve" smooth="yes"/>
      <point x="446" y="159"/>
      <point x="405" y="93"/>
      <point x="335" y="36"/>
      <point x="235" y="-1"/>
      <point x="169" y="-1" type="qcurve" smooth="yes"/>
      <point x="121" y="-1"/>
      <point x="64" y="25"/>
      <point x="36" y="62"/>
      <point x="27" y="101"/>
      <point x="27" y="114" type="qcurve" smooth="yes"/>
      <point x="26" y="128"/>
      <point x="41" y="222" type="line" smooth="yes"/>
      <point x="47" y="260"/>
      <point x="56" y="304" type="qcurve" smooth="no"/>
      <point x="68" y="334"/>
      <point x="107" y="381"/>
      <point x="155" y="419"/>
      <point x="210" y="446"/>
      <point x="237" y="455" type="qcurve" smooth="no"/>
      <point x="240" y="485" type="line" smooth="no"/>
      <point x="178" y="486" type="line" smooth="no"/>
      <point x="193" y="594" type="line" smooth="no"/>
      <point x="328" y="594" type="line" smooth="no"/>
      <point x="312" y="486" type="line" smooth="no"/>
      <point x="290" y="486" type="line" smooth="no"/>
      <point x="287" y="469" type="line" smooth="no"/>
      <point x="288" y="469" type="line" smooth="no"/>
      <point x="268" y="342" type="line" smooth="no"/>
      <point x="263" y="338"/>
      <point x="252" y="328"/>
      <point x="250" y="320" type="qcurve" smooth="no"/>
      <point x="242" y="305"/>
      <point x="230" y="263"/>
      <point x="221" y="221"/>
      <point x="215" y="185"/>
      <point x="214" y="175" type="qcurve" smooth="yes"/>
      <point x="213" y="171"/>
      <point x="214" y="161"/>
      <point x="222" y="152"/>
      <point x="240" y="145"/>
      <point x="257" y="145" type="qcurve" smooth="yes"/>
      <point x="300" y="145"/>
      <point x="342" y="177"/>
      <point x="347" y="189" type="qcurve" smooth="yes"/>
      <point x="349" y="195"/>
      <point x="358" y="230"/>
      <point x="375" y="308"/>
      <point x="377" y="316" type="qcurve" smooth="yes"/>
      <point x="380" y="332"/>
      <point x="363" y="363"/>
      <point x="337" y="363" type="qcurve" smooth="yes"/>
      <point x="322" y="363"/>
      <point x="300" y="358"/>
      <point x="293" y="355" type="qcurve" smooth="yes"/>
      <point x="284" y="351"/>
      <point x="279" y="347" type="qcurve" smooth="no"/>
      <point x="298" y="470" type="line" smooth="no"/>
      <point x="326" y="472" type="line" smooth="yes"/>
      <point x="334" y="473"/>
      <point x="363" y="470"/>
      <point x="383" y="464" type="qcurve" smooth="no"/>
      <point x="387" y="485" type="line" smooth="no"/>
      <point x="329" y="486" type="line" smooth="no"/>
      <point x="344" y="594" type="line" smooth="no"/>
      <point x="478" y="594" type="line" smooth="no"/>
      <point x="462" y="486" type="line" smooth="no"/>
      <point x="437" y="486" type="line" smooth="no"/>
      <point x="429" y="443" type="line" smooth="no"/>
    </contour>
  </outline>
</glyph>
<glyph name="divide" format="1">
  <advance width="463"/>
  <unicode hex="00f7"/>
  <outline>
    <contour>
      <point x="63" y="292" type="line" smooth="no"/>
      <point x="422" y="292" type="line" smooth="no"/>
      <point x="395" y="162" type="line" smooth="no"/>
      <point x="41" y="162" type="line" smooth="no"/>
    </contour>
    <contour>
      <point x="289" y="133" type="line" smooth="no"/>
      <point x="267" y="0" type="line" smooth="no"/>
      <point x="120" y="0" type="line" smooth="no"/>
      <point x="142" y="133" type="line" smooth="no"/>
    </contour>
    <contour>
      <point x="331" y="456" type="line" smooth="no"/>
      <point x="314" y="322" type="line" smooth="no"/>
      <point x="167" y="322" type="line" smooth="no"/>
      <point x="189" y="456" type="line" smooth="no"/>
    </contour>
  </outline>
</glyph>
<glyph name="oslash" format="1">
  <advance width="585"/>
  <unicode hex="00f8"/>
  <outline>
    <contour>
      <point x="55" y="59" type="line" smooth="no"/>
      <point x="47" y="74"/>
      <point x="43" y="103"/>
      <point x="42" y="114" type="qcurve" smooth="no"/>
      <point x="42" y="128"/>
      <point x="56" y="222" type="line" smooth="yes"/>
      <point x="62" y="260"/>
      <point x="71" y="304" type="qcurve" smooth="no"/>
      <point x="88" y="340"/>
      <point x="140" y="396"/>
      <point x="201" y="436"/>
      <point x="267" y="462"/>
      <point x="298" y="468" type="qcurve" smooth="no"/>
      <point x="286" y="342" type="line" smooth="no"/>
      <point x="274" y="332"/>
      <point x="262" y="310"/>
      <point x="256" y="288"/>
      <point x="252" y="264" type="line" smooth="yes"/>
      <point x="245" y="241"/>
      <point x="241" y="223" type="qcurve" smooth="no"/>
      <point x="236" y="207"/>
      <point x="230" y="178"/>
      <point x="229" y="175" type="qcurve" smooth="no"/>
      <point x="229" y="171"/>
      <point x="227" y="161"/>
      <point x="234" y="151"/>
      <point x="253" y="145"/>
      <point x="273" y="145" type="qcurve" smooth="yes"/>
      <point x="293" y="145"/>
      <point x="322" y="156"/>
      <point x="342" y="170"/>
      <point x="358" y="189" type="line" smooth="yes"/>
      <point x="362" y="194"/>
      <point x="373" y="229"/>
      <point x="384" y="271"/>
      <point x="392" y="310"/>
      <point x="394" y="318" type="qcurve" smooth="yes"/>
      <point x="398" y="334"/>
      <point x="383" y="364"/>
      <point x="352" y="363" type="qcurve" smooth="yes"/>
      <point x="336" y="362"/>
      <point x="316" y="357"/>
      <point x="309" y="354" type="qcurve" smooth="yes"/>
      <point x="301" y="350"/>
      <point x="297" y="345" type="qcurve" smooth="no"/>
      <point x="309" y="469" type="line" smooth="no"/>
      <point x="341" y="472" type="line" smooth="yes"/>
      <point x="349" y="473"/>
      <point x="379" y="468"/>
      <point x="396" y="462" type="qcurve" smooth="no"/>
      <point x="443" y="541" type="line" smooth="no"/>
      <point x="558" y="510" type="line" smooth="no"/>
      <point x="491" y="392" type="line" smooth="no"/>
      <point x="497" y="378"/>
      <point x="497" y="361" type="qcurve" smooth="yes"/>
      <point x="497" y="350"/>
      <point x="479" y="251"/>
      <point x="468" y="201"/>
      <point x="464" y="188" type="qcurve" smooth="yes"/>
      <point x="456" y="159"/>
      <point x="413" y="95"/>
      <point x="343" y="40"/>
      <point x="246" y="3"/>
      <point x="184" y="2" type="qcurve" smooth="yes"/>
      <point x="179" y="1"/>
      <point x="169" y="2"/>
      <point x="164" y="2" type="qcurve" smooth="no"/>
      <point x="156" y="-8"/>
      <point x="137" y="-34" type="line" smooth="yes"/>
      <point x="124" y="-51" type="line" smooth="no"/>
      <point x="29" y="19" type="line" smooth="no"/>
      <point x="55" y="59" type="line" smooth="no"/>
    </contour>
  </outline>
</glyph>
<glyph name="yacute" format="1">
  <advance width="651"/>
  <unicode hex="00fd"/>
  <outline>
    <contour>
      <point x="354" y="594" type="line" smooth="no"/>
      <point x="281" y="405" type="line" smooth="no"/>
      <point x="259" y="405" type="line" smooth="no"/>
      <point x="242" y="314"/>
      <point x="220" y="186"/>
      <point x="217" y="163" type="qcurve" smooth="yes"/>
      <point x="215" y="150"/>
      <point x="226" y="130"/>
      <point x="244" y="116"/>
      <point x="267" y="109"/>
      <point x="278" y="109" type="qcurve" smooth="yes"/>
      <point x="320" y="109"/>
      <point x="380" y="163"/>
      <point x="387" y="207" type="qcurve" smooth="yes"/>
      <point x="429" y="469" type="line" smooth="no"/>
      <point x="615" y="469" type="line" smooth="no"/>
      <point x="526" y="-52" type="line" smooth="yes"/>
      <point x="520" y="-86"/>
      <point x="479" y="-141"/>
      <point x="420" y="-180"/>
      <point x="350" y="-201"/>
      <point x="314" y="-201" type="qcurve" smooth="yes"/>
      <point x="247" y="-201"/>
      <point x="116" y="-164"/>
      <point x="57" y="-132" type="qcurve" smooth="no"/>
      <point x="56" y="-120"/>
      <point x="62" y="-96"/>
      <point x="63" y="-83" type="qcurve" smooth="no"/>
      <point x="173" y="-109"/>
      <point x="214" y="-106" type="qcurve" smooth="yes"/>
      <point x="260" y="-103"/>
      <point x="318" y="-87"/>
      <point x="353" y="-54"/>
      <point x="368" y="-1"/>
      <point x="371" y="39" type="qcurve" smooth="no"/>
      <point x="333" y="15"/>
      <point x="260" y="-21"/>
      <point x="215" y="-24" type="qcurve" smooth="yes"/>
      <point x="182" y="-26"/>
      <point x="120" y="-13"/>
      <point x="70" y="20"/>
      <point x="37" y="71"/>
      <point x="35" y="106" type="qcurve" smooth="no"/>
      <point x="93" y="469" type="line" smooth="no"/>
      <point x="194" y="469" type="line" smooth="no"/>
      <point x="213" y="594" type="line" smooth="no"/>
    </contour>
  </outline>
</glyph>
<glyph name="lslash" format="1">
  <advance width="383"/>
  <unicode hex="0142"/>
  <outline>
    <contour>
      <point x="98" y="516" type="line" smooth="no"/>
      <point x="126" y="666" type="line" smooth="no"/>
      <point x="310" y="666" type="line" smooth="no"/>
      <point x="286" y="549" type="line" smooth="no"/>
      <point x="353" y="561" type="line" smooth="no"/>
      <point x="353" y="454" type="line" smooth="no"/>
      <point x="264" y="440" type="line" smooth="no"/>
      <point x="211" y="181" type="line" smooth="yes"/>
      <point x="199" y="119"/>
      <point x="243" y="66"/>
      <point x="309" y="67" type="qcurve" smooth="yes"/>
      <point x="320" y="67"/>
      <point x="347" y="73"/>
      <point x="358" y="75" type="qcurve" smooth="no"/>
      <point x="349" y="23" type="line" smooth="no"/>
      <point x="320" y="14"/>
      <point x="265" y="0"/>
      <point x="233" y="-1" type="qcurve" smooth="yes"/>
      <point x="207" y="-1"/>
      <point x="145" y="7"/>
      <point x="88" y="34"/>
      <point x="44" y="87"/>
      <point x="36" y="131" type="qcurve" smooth="no"/>
      <point x="35" y="177" type="line" smooth="no"/>
      <point x="79" y="412" type="line" smooth="no"/>
      <point x="25" y="404" type="line" smooth="no"/>
      <point x="26" y="503" type="line" smooth="no"/>
    </contour>
  </outline>
</glyph>
<glyph name="Scaron" format="1">
  <advance width="489"/>
  <unicode hex="0160"/>
  <outline>
    <contour>
      <point x="342" y="716" type="line" smooth="no"/>
      <point x="435" y="781" type="line" smooth="no"/>
      <point x="419" y="679" type="line" smooth="no"/>
      <point x="376" y="653" type="line" smooth="no"/>
      <point x="405" y="641"/>
      <point x="451" y="600"/>
      <point x="458" y="569" type="qcurve" smooth="no"/>
      <point x="459" y="559"/>
      <point x="460" y="544" type="qcurve" smooth="yes"/>
      <point x="461" y="531"/>
      <point x="460" y="493"/>
      <point x="457" y="467" type="qcurve" smooth="no"/>
      <point x="335" y="467" type="line" smooth="no"/>
      <point x="334" y="488"/>
      <point x="320" y="511"/>
      <point x="303" y="522"/>
      <point x="289" y="524" type="line" smooth="no"/>
      <point x="276" y="524"/>
      <point x="255" y="510"/>
      <point x="240" y="491"/>
      <point x="231" y="470"/>
      <point x="231" y="464" type="qcurve" smooth="yes"/>
      <point x="231" y="443"/>
      <point x="257" y="413"/>
      <point x="296" y="387"/>
      <point x="344" y="360"/>
      <point x="387" y="324"/>
      <point x="420" y="273"/>
      <point x="426" y="237" type="qcurve" smooth="no"/>
      <point x="423" y="203"/>
      <point x="405" y="129"/>
      <point x="393" y="97" type="qcurve" smooth="yes"/>
      <point x="387" y="83"/>
      <point x="356" y="49"/>
      <point x="307" y="19"/>
      <point x="240" y="-1"/>
      <point x="199" y="-1" type="qcurve" smooth="yes"/>
      <point x="157" y="-1"/>
      <point x="96" y="18"/>
      <point x="57" y="44"/>
      <point x="38" y="71"/>
      <point x="38" y="80" type="qcurve" smooth="yes"/>
      <point x="37" y="91"/>
      <point x="39" y="110" type="qcurve" smooth="yes"/>
      <point x="47" y="181"/>
      <point x="55" y="222" type="qcurve" smooth="no"/>
      <point x="184" y="223" type="line" smooth="no"/>
      <point x="181" y="213"/>
      <point x="179" y="200"/>
      <point x="178" y="195" type="qcurve" smooth="yes"/>
      <point x="177" y="190"/>
      <point x="177" y="186" type="qcurve" smooth="yes"/>
      <point x="177" y="174"/>
      <point x="191" y="142"/>
      <point x="215" y="142" type="qcurve" smooth="yes"/>
      <point x="236" y="142"/>
      <point x="259" y="165"/>
      <point x="270" y="197"/>
      <point x="273" y="232"/>
      <point x="273" y="243" type="qcurve" smooth="no"/>
      <point x="268" y="259"/>
      <point x="238" y="290"/>
      <point x="199" y="319"/>
      <point x="156" y="346"/>
      <point x="119" y="374"/>
      <point x="95" y="401"/>
      <point x="95" y="416" type="qcurve" smooth="yes"/>
      <point x="94" y="439"/>
      <point x="104" y="509"/>
      <point x="115" y="541" type="qcurve" smooth="yes"/>
      <point x="132" y="590"/>
      <point x="203" y="646"/>
      <point x="241" y="657" type="qcurve" smooth="no"/>
      <point x="195" y="676" type="line" smooth="no"/>
      <point x="219" y="766" type="line" smooth="no"/>
    </contour>
  </outline>
</glyph>
<glyph name="Ydieresis" format="1">
  <advance width="571"/>
  <unicode hex="0178"/>
  <outline>
    <contour>
      <point x="508" y="781" type="line" smooth="no"/>
      <point x="500" y="730"/>
      <point x="498" y="711" type="qcurve" smooth="yes"/>
      <point x="492" y="666" type="line" smooth="no"/>
      <point x="577" y="666" type="line" smooth="no"/>
      <point x="351" y="303" type="line" smooth="no"/>
      <point x="308" y="0" type="line" smooth="no"/>
      <point x="128" y="0" type="line" smooth="no"/>
      <point x="190" y="377" type="line" smooth="no"/>
      <point x="45" y="666" type="line" smooth="no"/>
      <point x="73" y="666" type="line" smooth="yes"/>
      <point x="84" y="666"/>
      <point x="104" y="665"/>
      <point x="107" y="666" type="qcurve" smooth="no"/>
      <point x="108" y="670"/>
      <point x="114" y="706"/>
      <point x="116" y="727" type="qcurve" smooth="yes"/>
      <point x="122" y="781" type="line" smooth="no"/>
      <point x="262" y="781" type="line" smooth="no"/>
      <point x="240" y="624" type="line" smooth="no"/>
      <point x="287" y="509" type="line" smooth="no"/>
      <point x="345" y="608" type="line" smooth="yes"/>
      <point x="350" y="618"/>
      <point x="348" y="614" type="qcurve" smooth="no"/>
      <point x="369" y="781" type="line" smooth="no"/>
    </contour>
  </outline>
</glyph>
<glyph name="circumflex" format="1">
  <advance width="383"/>
  <unicode hex="02c6"/>
  <outline>
    <contour>
      <point x="89" y="672" type="line" smooth="no"/>
      <point x="218" y="744" type="line" smooth="no"/>
      <point x="299" y="677" type="line" smooth="no"/>
      <point x="280" y="588" type="line" smooth="no"/>
      <point x="197" y="649" type="line" smooth="no"/>
      <point x="65" y="588" type="line" smooth="no"/>
    </contour>
  </outline>
</glyph>
<glyph name="dotaccent" format="1">
  <advance width="500"/>
  <unicode hex="02d9"/>
  <outline>
    <contour>
      <point x="201" y="581" type="qcurve" smooth="yes"/>
      <point x="201" y="601"/>
      <point x="230" y="630"/>
      <point x="250" y="630" type="qcurve" smooth="yes"/>
      <point x="270" y="630"/>
      <point x="299" y="601"/>
      <point x="299" y="581" type="qcurve" smooth="yes"/>
      <point x="299" y="561"/>
      <point x="270" y="532"/>
      <point x="250" y="532" type="qcurve" smooth="yes"/>
      <point x="230" y="532"/>
      <point x="201" y="561"/>
    </contour>
  </outline>
</glyph>
<glyph name="ogonek" format="1">
  <advance width="1000"/>
  <unicode hex="02db"/>
  <outline>
    <contour>
      <point x="261" y="8" type="line" smooth="no"/>
      <point x="302" y="-128" type="line" smooth="no"/>
      <point x="206" y="-128" type="line" smooth="no"/>
      <point x="133" y="8" type="line" smooth="no"/>
    </contour>
  </outline>
</glyph>
<glyph name="tilde" format="1">
  <advance width="510"/>
  <unicode hex="02dc"/>
  <outline>
    <contour>
      <point x="90" y="763" type="line" smooth="no"/>
      <point x="106" y="771"/>
      <point x="162" y="788"/>
      <point x="188" y="788" type="qcurve" smooth="yes"/>
      <point x="207" y="788"/>
      <point x="252" y="780"/>
      <point x="300" y="769"/>
      <point x="348" y="761"/>
      <point x="371" y="761" type="qcurve" smooth="yes"/>
      <point x="377" y="761"/>
      <point x="395" y="768"/>
      <point x="404" y="773" type="qcurve" smooth="yes"/>
      <point x="415" y="778"/>
      <point x="426" y="785" type="qcurve" smooth="no"/>
      <point x="416" y="662" type="line" smooth="no"/>
      <point x="410" y="658"/>
      <point x="372" y="647"/>
      <point x="359" y="647" type="qcurve" smooth="yes"/>
      <point x="343" y="647"/>
      <point x="289" y="654"/>
      <point x="184" y="671"/>
      <point x="172" y="671" type="qcurve" smooth="yes"/>
      <point x="156" y="671"/>
      <point x="125" y="665"/>
      <point x="111" y="661" type="qcurve" smooth="yes"/>
      <point x="95" y="657"/>
      <point x="80" y="651" type="qcurve" smooth="no"/>
      <point x="90" y="763" type="line" smooth="no"/>
    </contour>
  </outline>
</glyph>
<glyph name="endash" format="1">
  <advance width="376"/>
  <unicode hex="2013"/>
  <outline>
    <contour>
      <point x="70" y="233" type="line" smooth="no"/>
      <point x="320" y="233" type="line" smooth="no"/>
      <point x="300" y="105" type="line" smooth="no"/>
      <point x="50" y="105" type="line" smooth="no"/>
    </contour>
  </outline>
</glyph>
<glyph name="emdash" format="1">
  <advance width="815"/>
  <unicode hex="2014"/>
  <outline>
    <contour>
      <point x="80" y="238" type="line" smooth="no"/>
      <point x="754" y="238" type="line" smooth="no"/>
      <point x="734" y="108" type="line" smooth="no"/>
      <point x="60" y="108" type="line" smooth="no"/>
    </contour>
  </outline>
</glyph>
<glyph name="quoteright" format="1">
  <advance width="269"/>
  <unicode hex="2019"/>
  <outline>
    <contour>
      <point x="101" y="384" type="line" smooth="no"/>
      <point x="120" y="507" type="line" smooth="no"/>
      <point x="66" y="507" type="line" smooth="no"/>
      <point x="77" y="666" type="line" smooth="no"/>
      <point x="231" y="666" type="line" smooth="no"/>
      <point x="185" y="384" type="line" smooth="no"/>
    </contour>
  </outline>
</glyph>
<glyph name="quotesinglbase" format="1">
  <advance width="292"/>
  <unicode hex="201a"/>
  <outline>
    <contour>
      <point x="112" y="-118" type="line" smooth="no"/>
      <point x="135" y="0" type="line" smooth="no"/>
      <point x="50" y="0" type="line" smooth="no"/>
      <point x="60" y="158" type="line" smooth="no"/>
      <point x="220" y="158" type="line" smooth="no"/>
      <point x="222" y="94" type="line" smooth="yes"/>
      <point x="223" y="68"/>
      <point x="224" y="14"/>
      <point x="223" y="0" type="qcurve" smooth="yes"/>
      <point x="221" y="-25"/>
      <point x="210" y="-67"/>
      <point x="204" y="-83" type="qcurve" smooth="yes"/>
      <point x="197" y="-101"/>
      <point x="189" y="-117" type="qcurve" smooth="no"/>
    </contour>
  </outline>
</glyph>
<glyph name="quotedblleft" format="1">
  <advance width="488"/>
  <unicode hex="201c"/>
  <outline>
    <contour>
      <point x="242" y="384" type="line" smooth="no"/>
      <point x="286" y="666" type="line" smooth="no"/>
      <point x="440" y="666" type="line" smooth="no"/>
      <point x="391" y="507" type="line" smooth="no"/>
      <point x="337" y="507" type="line" smooth="no"/>
      <point x="318" y="384" type="line" smooth="no"/>
    </contour>
    <contour>
      <point x="42" y="384" type="line" smooth="no"/>
      <point x="86" y="666" type="line" smooth="no"/>
      <point x="240" y="666" type="line" smooth="no"/>
      <point x="191" y="507" type="line" smooth="no"/>
      <point x="137" y="507" type="line" smooth="no"/>
      <point x="118" y="384" type="line" smooth="no"/>
    </contour>
  </outline>
</glyph>
<glyph name="quotedblbase" format="1">
  <advance width="522"/>
  <unicode hex="201e"/>
  <outline>
    <contour>
      <point x="112" y="-118" type="line" smooth="no"/>
      <point x="135" y="0" type="line" smooth="no"/>
      <point x="50" y="0" type="line" smooth="no"/>
      <point x="60" y="158" type="line" smooth="no"/>
      <point x="220" y="158" type="line" smooth="no"/>
      <point x="222" y="94" type="line" smooth="yes"/>
      <point x="223" y="68"/>
      <point x="224" y="14"/>
      <point x="223" y="0" type="qcurve" smooth="yes"/>
      <point x="221" y="-25"/>
      <point x="210" y="-67"/>
      <point x="204" y="-83" type="qcurve" smooth="yes"/>
      <point x="197" y="-101"/>
      <point x="189" y="-117" type="qcurve" smooth="no"/>
    </contour>
    <contour>
      <point x="362" y="-118" type="line" smooth="no"/>
      <point x="385" y="0" type="line" smooth="no"/>
      <point x="300" y="0" type="line" smooth="no"/>
      <point x="310" y="158" type="line" smooth="no"/>
      <point x="470" y="158" type="line" smooth="no"/>
      <point x="472" y="94" type="line" smooth="yes"/>
      <point x="473" y="68"/>
      <point x="474" y="14"/>
      <point x="473" y="0" type="qcurve" smooth="yes"/>
      <point x="471" y="-25"/>
      <point x="460" y="-67"/>
      <point x="454" y="-83" type="qcurve" smooth="yes"/>
      <point x="447" y="-101"/>
      <point x="439" y="-117" type="qcurve" smooth="no"/>
    </contour>
  </outline>
</glyph>
<glyph name="ellipsis" format="1">
  <advance width="715"/>
  <unicode hex="2026"/>
  <outline>
    <contour>
      <point x="448" y="147" type="line" smooth="no"/>
      <point x="424" y="0" type="line" smooth="no"/>
      <point x="266" y="0" type="line" smooth="no"/>
      <point x="289" y="147" type="line" smooth="no"/>
    </contour>
    <contour>
      <point x="223" y="147" type="line" smooth="no"/>
      <point x="199" y="0" type="line" smooth="no"/>
      <point x="44" y="0" type="line" smooth="no"/>
      <point x="68" y="147" type="line" smooth="no"/>
    </contour>
    <contour>
      <point x="665" y="147" type="line" smooth="no"/>
      <point x="642" y="0" type="line" smooth="no"/>
      <point x="483" y="0" type="line" smooth="no"/>
      <point x="506" y="147" type="line" smooth="no"/>
    </contour>
  </outline>
</glyph>
<glyph name="guilsinglright" format="1">
  <advance width="353"/>
  <unicode hex="203a"/>
  <outline>
    <contour>
      <point x="249" y="409" type="line" smooth="no"/>
      <point x="291" y="199" type="line" smooth="no"/>
      <point x="184" y="-3" type="line" smooth="no"/>
      <point x="34" y="-3" type="line" smooth="no"/>
      <point x="146" y="199" type="line" smooth="no"/>
      <point x="98" y="409" type="line" smooth="no"/>
    </contour>
  </outline>
</glyph>
<glyph name="fraction" format="1">
  <advance width="514"/>
  <unicode hex="2044"/>
  <unicode hex="2215"/>
  <outline>
    <contour>
      <point x="458" y="639" type="line" smooth="no"/>
      <point x="182" y="-27" type="line" smooth="no"/>
      <point x="50" y="27" type="line" smooth="no"/>
      <point x="321" y="688" type="line" smooth="no"/>
    </contour>
  </outline>
</glyph>
<glyph name="soundrecording" format="1">
  <advance width="689"/>
  <unicode hex="2117"/>
  <outline>
    <contour>
      <point x="272" y="600" type="line" smooth="no"/>
      <point x="198" y="151" type="line" smooth="no"/>
      <point x="141" y="152" type="line" smooth="no"/>
      <point x="115" y="172"/>
      <point x="79" y="230"/>
      <point x="58" y="297"/>
      <point x="52" y="370"/>
      <point x="57" y="405" type="qcurve" smooth="yes"/>
      <point x="66" y="465"/>
      <point x="118" y="562"/>
      <point x="199" y="631"/>
      <point x="306" y="669"/>
      <point x="371" y="669" type="qcurve" smooth="yes"/>
      <point x="429" y="669"/>
      <point x="530" y="624"/>
      <point x="601" y="548"/>
      <point x="636" y="447"/>
      <point x="629" y="392" type="qcurve" smooth="yes"/>
      <point x="620" y="330"/>
      <point x="572" y="222"/>
      <point x="489" y="142"/>
      <point x="368" y="97"/>
      <point x="287" y="97" type="qcurve" smooth="yes"/>
      <point x="260" y="97"/>
      <point x="183" y="120"/>
      <point x="148" y="146" type="qcurve" smooth="no"/>
      <point x="312" y="146" type="line" smooth="no"/>
      <point x="371" y="495" type="line" smooth="no"/>
      <point x="391" y="495"/>
      <point x="407" y="491" type="qcurve" smooth="yes"/>
      <point x="420" y="487"/>
      <point x="440" y="470"/>
      <point x="437" y="452" type="qcurve" smooth="yes"/>
      <point x="435" y="444"/>
      <point x="430" y="429"/>
      <point x="414" y="413"/>
      <point x="384" y="394"/>
      <point x="358" y="382" type="qcurve" smooth="no"/>
      <point x="344" y="292" type="line" smooth="no"/>
      <point x="368" y="298"/>
      <point x="427" y="319"/>
      <point x="483" y="355"/>
      <point x="526" y="412"/>
      <point x="532" y="454" type="qcurve" smooth="yes"/>
      <point x="537" y="488"/>
      <point x="517" y="542"/>
      <point x="477" y="580"/>
      <point x="422" y="600"/>
      <point x="392" y="600" type="qcurve" smooth="yes"/>
    </contour>
  </outline>
</glyph>
<glyph name="trademark" format="1">
  <advance width="747"/>
  <unicode hex="2122"/>
  <outline>
    <contour>
      <point x="260" y="522" type="line" smooth="no"/>
      <point x="202" y="148" type="line" smooth="no"/>
      <point x="73" y="148" type="line" smooth="no"/>
      <point x="132" y="521" type="line" smooth="no"/>
      <point x="41" y="521" type="line" smooth="no"/>
      <point x="57" y="638" type="line" smooth="no"/>
      <point x="354" y="638" type="line" smooth="no"/>
      <point x="340" y="522" type="line" smooth="no"/>
    </contour>
    <contour>
      <point x="519" y="149" type="line" smooth="no"/>
      <point x="555" y="377" type="line" smooth="no"/>
      <point x="485" y="311" type="line" smooth="no"/>
      <point x="450" y="364" type="line" smooth="no"/>
      <point x="416" y="149" type="line" smooth="no"/>
      <point x="292" y="149" type="line" smooth="no"/>
      <point x="374" y="638" type="line" smooth="no"/>
      <point x="480" y="638" type="line" smooth="no"/>
      <point x="531" y="505" type="line" smooth="no"/>
      <point x="603" y="637" type="line" smooth="no"/>
      <point x="724" y="637" type="line" smooth="no"/>
      <point x="644" y="149" type="line" smooth="no"/>
    </contour>
  </outline>
</glyph>
<glyph name="arrowup" format="1">
  <advance width="469"/>
  <unicode hex="2191"/>
  <outline>
    <contour>
      <point x="309" y="469" type="line" smooth="no"/>
      <point x="225" y="0" type="line" smooth="no"/>
      <point x="164" y="38" type="line" smooth="no"/>
      <point x="81" y="0" type="line" smooth="no"/>
      <point x="159" y="469" type="line" smooth="no"/>
      <point x="42" y="469" type="line" smooth="no"/>
      <point x="261" y="654" type="line" smooth="no"/>
      <point x="431" y="469" type="line" smooth="no"/>
    </contour>
  </outline>
</glyph>
<glyph name="arrowdown" format="1">
  <advance width="469"/>
  <unicode hex="2193"/>
  <outline>
    <contour>
      <point x="164" y="185" type="line" smooth="no"/>
      <point x="248" y="654" type="line" smooth="no"/>
      <point x="309" y="616" type="line" smooth="no"/>
      <point x="392" y="654" type="line" smooth="no"/>
      <point x="314" y="185" type="line" smooth="no"/>
      <point x="431" y="185" type="line" smooth="no"/>
      <point x="212" y="0" type="line" smooth="no"/>
      <point x="42" y="185" type="line" smooth="no"/>
    </contour>
  </outline>
</glyph>
<glyph name="fl" format="1">
  <advance width="727"/>
  <unicode hex="220f"/>
  <outline>
    <contour>
      <point x="693" y="23" type="line" smooth="no"/>
      <point x="665" y="14"/>
      <point x="610" y="0"/>
      <point x="578" y="0" type="qcurve" smooth="no"/>
      <point x="552" y="-1"/>
      <point x="490" y="8"/>
      <point x="433" y="38"/>
      <point x="389" y="92"/>
      <point x="381" y="136" type="qcurve" smooth="no"/>
      <point x="380" y="182" type="line" smooth="no"/>
      <point x="429" y="450" type="line" smooth="yes"/>
      <point x="456" y="594" type="line" smooth="no"/>
      <point x="438" y="594" type="line" smooth="yes"/>
      <point x="397" y="594"/>
      <point x="349" y="564"/>
      <point x="324" y="524"/>
      <point x="314" y="481"/>
      <point x="312" y="469" type="qcurve" smooth="no"/>
      <point x="406" y="469" type="line" smooth="no"/>
      <point x="391" y="371" type="line" smooth="no"/>
      <point x="294" y="371" type="line" smooth="no"/>
      <point x="229" y="0" type="line" smooth="no"/>
      <point x="65" y="0" type="line" smooth="no"/>
      <point x="125" y="368" type="line" smooth="no"/>
      <point x="24" y="368" type="line" smooth="no"/>
      <point x="40" y="469" type="line" smooth="no"/>
      <point x="146" y="469" type="line" smooth="no"/>
      <point x="156" y="522"/>
      <point x="176" y="597"/>
      <point x="225" y="644"/>
      <point x="317" y="666"/>
      <point x="399" y="666" type="qcurve" smooth="yes"/>
      <point x="651" y="666" type="line" smooth="no"/>
      <point x="618" y="500" type="line" smooth="yes"/>
      <point x="556" y="186" type="line" smooth="yes"/>
      <point x="543" y="124"/>
      <point x="588" y="66"/>
      <point x="654" y="67" type="qcurve" smooth="yes"/>
      <point x="665" y="67"/>
      <point x="687" y="69"/>
      <point x="698" y="71" type="qcurve" smooth="no"/>
    </contour>
  </outline>
</glyph>
<glyph name="minus" format="1">
  <advance width="348"/>
  <unicode hex="2212"/>
  <outline>
    <contour>
      <point x="60" y="241" type="line" smooth="no"/>
      <point x="305" y="241" type="line" smooth="no"/>
      <point x="284" y="108" type="line" smooth="no"/>
      <point x="39" y="108" type="line" smooth="no"/>
    </contour>
  </outline>
</glyph>
<glyph name="notequal" format="1">
  <advance width="488"/>
  <unicode hex="2260"/>
  <outline>
    <contour>
      <point x="358" y="337" type="line" smooth="no"/>
      <point x="440" y="337" type="line" smooth="no"/>
      <point x="419" y="212" type="line" smooth="no"/>
      <point x="312" y="212" type="line" smooth="no"/>
      <point x="294" y="162" type="line" smooth="no"/>
      <point x="412" y="162" type="line" smooth="no"/>
      <point x="391" y="38" type="line" smooth="no"/>
      <point x="246" y="38" type="line" smooth="no"/>
      <point x="232" y="0" type="line" smooth="no"/>
      <point x="100" y="-1" type="line" smooth="no"/>
      <point x="116" y="38" type="line" smooth="no"/>
      <point x="28" y="38" type="line" smooth="no"/>
      <point x="49" y="162" type="line" smooth="no"/>
      <point x="163" y="162" type="line" smooth="no"/>
      <point x="182" y="212" type="line" smooth="no"/>
      <point x="56" y="212" type="line" smooth="no"/>
      <point x="77" y="337" type="line" smooth="no"/>
      <point x="229" y="337" type="line" smooth="no"/>
      <point x="252" y="401" type="line" smooth="no"/>
      <point x="380" y="400" type="line" smooth="no"/>
    </contour>
  </outline>
</glyph>
<glyph name="checkmark" format="1">
  <advance width="695"/>
  <unicode hex="2713"/>
  <outline>
    <contour>
      <point x="94" y="236" type="line" smooth="no"/>
      <point x="247" y="142" type="line" smooth="no"/>
      <point x="625" y="484" type="line" smooth="no"/>
      <point x="604" y="370" type="line" smooth="no"/>
      <point x="227" y="11" type="line" smooth="no"/>
      <point x="76" y="130" type="line" smooth="no"/>
    </contour>
  </outline>
</glyph>
